<?xml version="1.0" standalone="no"?>
<!DOCTYPE svg PUBLIC "-//W3C//DTD SVG 1.1//EN" "http://www.w3.org/Graphics/SVG/1.1/DTD/svg11.dtd" >
<svg xmlns="http://www.w3.org/2000/svg" xmlns:xlink="http://www.w3.org/1999/xlink" version="1.1">
<metadata>
Created by FontForge 20190801 at Sun Jun  9 06:52:52 2019
 By root
Copyright (c) 2019 by Muntab_Art &#38; Romi W. All rights reserved.
</metadata>
<defs>
<font id="Banana" horiz-adv-x="420" >
  <font-face 
    font-family="Banana"
    font-weight="400"
    font-stretch="normal"
    units-per-em="1000"
    panose-1="2 0 5 6 2 0 0 2 0 4"
    ascent="750"
    descent="-250"
    x-height="500"
    cap-height="500"
    bbox="-76 -234 754 645"
    underline-thickness="50"
    underline-position="-100"
    unicode-range="U+000D-FB02"
  />
<missing-glyph horiz-adv-x="198" 
 />
    <glyph glyph-name=".notdef" horiz-adv-x="198" 
 />
    <glyph glyph-name="NULL" horiz-adv-x="0" 
 />
    <glyph glyph-name="NULL" horiz-adv-x="0" 
 />
    <glyph glyph-name="nonmarkingreturn" unicode="&#xd;" horiz-adv-x="198" 
 />
    <glyph glyph-name="space" unicode=" " horiz-adv-x="198" 
 />
    <glyph glyph-name="E" unicode="E" horiz-adv-x="338" 
d="M235 254v-8h-145v-238h208v-8h-258v500h258v-8h-208v-238h145z" />
    <glyph glyph-name="F" unicode="F" horiz-adv-x="339" 
d="M236 254v-8h-146v-246h-50v500h259v-8h-209v-238h146z" />
    <glyph glyph-name="G" unicode="G" horiz-adv-x="451" 
d="M365 246h-125v8h171v-215q-33 -22 -66 -32q-19 -6 -38 -8.5t-38 -2.5q-54 0 -101 21t-82 72q-46 70 -46 161t42 161q29 48 69 70t89 22q26 0 50.5 -7t47.5 -24q27 -19 47 -52l-6 -5q-23 34 -48.5 51t-66.5 22q-50 0 -89 -29t-59 -83q-11 -30 -15 -62t-4 -64
q1 -65 24 -123q11 -29 26.5 -53t38.5 -41q39 -30 83 -30q28 0 50.5 7.5t45.5 19.5v216z" />
    <glyph glyph-name="H" unicode="H" horiz-adv-x="384" 
d="M295 500h49v-500h-49v246h-205v-246h-50v500h50v-246h205v246z" />
    <glyph glyph-name="I" unicode="I" horiz-adv-x="129" 
d="M40 500h49v-500h-49v500z" />
    <glyph glyph-name="J" unicode="J" horiz-adv-x="248" 
d="M208 132q0 -57 -22.5 -89t-51.5 -40t-56.5 6.5t-37.5 52.5l9 3q8 -31 26 -40t36.5 1t32.5 37t14 69v368h50v-368z" />
    <glyph glyph-name="K" unicode="K" horiz-adv-x="400" 
d="M307 500l-180 -218l233 -282h-65l-206 249v-249h-49v500h49v-251l208 251h10z" />
    <glyph glyph-name="L" unicode="L" horiz-adv-x="338" 
d="M40 0v500h49v-492h209v-8h-258z" />
    <glyph glyph-name="M" unicode="M" horiz-adv-x="510" 
d="M470 500v-500h-49v477l-182 -477h-9l-182 479v-479h-8v500h54l163 -430l164 430h49z" />
    <glyph glyph-name="N" unicode="N" horiz-adv-x="426" 
d="M98 500l280 -486v486h8v-500h-57l-281 486v-486h-8v500h58z" />
    <glyph glyph-name="O" unicode="O" horiz-adv-x="580" 
d="M290 500q52 0 97.5 -19.5t79.5 -53.5t53.5 -79.5t19.5 -97.5t-19.5 -97.5t-53.5 -79.5t-79.5 -53.5t-97.5 -19.5t-97.5 19.5t-79.5 53.5t-53.5 79.5t-19.5 97.5t19.5 97.5t53.5 79.5t79.5 53.5t97.5 19.5zM290 492q-40 0 -75 -19t-61.5 -52t-41.5 -77t-15 -94t15 -94
t41.5 -77t61.5 -52t75 -19t75 19t61.5 52t41.5 77t15 94t-15 94t-41.5 77t-61.5 52t-75 19z" />
    <glyph glyph-name="P" unicode="P" horiz-adv-x="362" 
d="M160 500q54 0 89.5 -19t53.5 -47t18 -61t-18 -61t-53.5 -47t-89.5 -19h-70v-246h-50v492v8h50h70zM153 254q38 0 63 17.5t37.5 44t12.5 57.5t-12.5 57.5t-37.5 44t-63 17.5h-63v-238h63z" />
    <glyph glyph-name="Q" unicode="Q" horiz-adv-x="579" 
d="M421 -101q-24 -1 -41 9t-29.5 26t-21 34t-16.5 33q-6 -1 -12 -1h-11q-52 0 -97.5 19.5t-79.5 53.5t-53.5 79.5t-19.5 97.5t19.5 97.5t53.5 79.5t79.5 53.5t97.5 19.5t97 -19.5t79 -53.5t53.5 -79.5t19.5 -97.5q0 -48 -17 -90.5t-46 -75.5t-69 -54.5t-86 -27.5
q7 -15 16 -31.5t20.5 -31t27 -23.5t36.5 -8v-9zM309 9q-4 6 -5 8q-8 11 -22.5 24.5t-32.5 17.5v7q10 -1 20 -6.5t17.5 -12t13.5 -13.5t9 -11l4 -6t4 -7q35 6 65 27.5t52.5 53.5t35.5 72.5t13 86.5q0 50 -15.5 94t-41.5 77t-61 52t-75 19t-75 -19t-61.5 -52t-41.5 -77
t-15 -94t15 -94t41.5 -77t61.5 -52t75 -19h9.5t9.5 1z" />
    <glyph glyph-name="R" unicode="R" horiz-adv-x="376" 
d="M193 248l143 -248h-57l-142 246h-47v-246h-50v500h120q51 0 86 -17t54 -43t21.5 -57t-11 -59t-43 -49t-74.5 -27zM154 254q38 0 63 17.5t37.5 44t12.5 57.5t-12.5 57.5t-37.5 44t-63 17.5h-64v-238h64z" />
    <glyph glyph-name="S" unicode="S" horiz-adv-x="357" 
d="M89 71q20 -28 46 -47.5t63 -19.5q35 0 60 26q24 27 24 63q0 28 -15 49q-8 10 -17 18.5t-18 16.5q-14 12 -29.5 22.5t-31.5 21.5q-12 8 -24.5 16t-24.5 17h1l-4 2t-4 3q-8 6 -15.5 12t-14.5 13q-21 19 -34 46q-11 27 -11 55q0 51 33 89q18 20 39.5 29t45.5 9
q42 0 69.5 -20t49.5 -53l-9 -7q-20 29 -46 48.5t-63 19.5q-36 0 -60 -27t-24 -62q0 -26 15 -49q8 -11 17 -19.5t18 -15.5q29 -23 61 -44q12 -8 24.5 -16t24.5 -17q3 -3 7 -5q8 -6 15.5 -12.5t14.5 -13.5q22 -19 34 -46q11 -27 11 -54t-8.5 -49t-24.5 -40q-18 -20 -39.5 -29
t-45.5 -9q-42 0 -69.5 20t-49.5 52z" />
    <glyph glyph-name="T" unicode="T" horiz-adv-x="415" 
d="M375 492h-142v-492h-49v492h-144v8h335v-8z" />
    <glyph glyph-name="U" unicode="U" horiz-adv-x="397" 
d="M40 500h50v-354q0 -50 19 -81t48 -44.5t62.5 -11t62.5 19t48 46.5t19 71v354h8v-354q0 -51 -23.5 -84t-58.5 -48t-76.5 -13.5t-76.5 18.5t-58.5 49t-23.5 78v354z" />
    <glyph glyph-name="V" unicode="V" horiz-adv-x="356" 
d="M316 500l-134 -500h-8l-134 500h51l108 -404l109 404h8z" />
    <glyph glyph-name="W" unicode="W" horiz-adv-x="550" 
d="M510 500l-134 -500h-8l-93 347l-93 -347h-8l-134 500h52l108 -404l71 267l-37 137h52l108 -404l108 404h8z" />
    <glyph glyph-name="X" unicode="X" horiz-adv-x="426" 
d="M62 0l133 230l-155 270h57l127 -220l127 220h9l-131 -228l157 -272h-58l-128 222l-129 -222h-9z" />
    <glyph glyph-name="Y" unicode="Y" horiz-adv-x="401" 
d="M235 281v-281h-50v250l-145 250h58l127 -220l127 220h9z" />
    <glyph glyph-name="Z" unicode="Z" horiz-adv-x="427" 
d="M102 8h239v-8h-301l284 492h-233v8h295h1l-1 -1z" />
    <glyph glyph-name="D" unicode="D" horiz-adv-x="440" 
d="M153 8q64 0 106.5 36t64 89.5t21.5 116.5t-21.5 116.5t-64 89.5t-106.5 36h-63v-484h63zM40 0v500h113q82 0 137 -37t82.5 -92.5t27.5 -120.5t-27.5 -120.5t-82.5 -92.5t-137 -37h-113z" />
    <glyph glyph-name="a" unicode="a" 
d="M188 484l-130 -484h-8l134 500h52l134 -500h-52z" />
    <glyph glyph-name="b" unicode="b" horiz-adv-x="392" 
d="M40 0v500h120q49 0 83 -15.5t53.5 -40t24 -53.5t-5.5 -56.5t-35 -49.5t-64 -32q47 -5 78 -25.5t45.5 -49t12 -59.5t-21 -57.5t-53.5 -44t-87 -17.5h-150zM90 246v-238h94q38 0 63 17.5t37.5 44t12.5 57.5t-12.5 57.5t-37.5 44t-63 17.5h-94zM154 254q38 0 63 17.5
t37.5 44t12.5 57.5t-12.5 57.5t-37.5 44t-63 17.5h-64v-238h64z" />
    <glyph glyph-name="c" unicode="c" horiz-adv-x="426" 
d="M386 420l-6 -5q-24 34 -49 51t-66 22q-49 0 -90 -29q-40 -29 -58 -83q-11 -30 -15.5 -62t-4.5 -64t4.5 -64t15.5 -62q18 -54 58 -83q41 -29 90 -29q41 5 66 22t49 51l6 -6q-11 -15 -22.5 -28t-25.5 -23q-22 -17 -46.5 -24t-50.5 -7q-49 0 -89 22t-69 70
q-23 35 -32.5 75.5t-10.5 85.5q1 45 10.5 85t32.5 76q29 48 69 70t89 22q26 0 50.5 -7t46.5 -24q14 -10 25.5 -23t22.5 -29z" />
    <glyph glyph-name="d" unicode="d" horiz-adv-x="440" 
d="M153 8q64 0 106.5 36t64 89.5t21.5 116.5t-21.5 116.5t-64 89.5t-106.5 36h-63v-484h63zM40 0v500h113q82 0 137 -37t82.5 -92.5t27.5 -120.5t-27.5 -120.5t-82.5 -92.5t-137 -37h-113z" />
    <glyph glyph-name="e" unicode="e" horiz-adv-x="338" 
d="M235 254v-8h-145v-238h208v-8h-258v500h258v-8h-208v-238h145z" />
    <glyph glyph-name="f" unicode="f" horiz-adv-x="339" 
d="M236 254v-8h-146v-246h-50v500h259v-8h-209v-238h146z" />
    <glyph glyph-name="g" unicode="g" horiz-adv-x="451" 
d="M365 246h-125v8h171v-215q-33 -22 -66 -32q-19 -6 -38 -8.5t-38 -2.5q-54 0 -101 21t-82 72q-46 70 -46 161t42 161q29 48 69 70t89 22q26 0 50.5 -7t47.5 -24q27 -19 47 -52l-6 -5q-23 34 -48.5 51t-66.5 22q-50 0 -89 -29t-59 -83q-11 -30 -15 -62t-4 -64
q1 -65 24 -123q11 -29 26.5 -53t38.5 -41q39 -30 83 -30q28 0 50.5 7.5t45.5 19.5v216z" />
    <glyph glyph-name="h" unicode="h" horiz-adv-x="384" 
d="M295 500h49v-500h-49v246h-205v-246h-50v500h50v-246h205v246z" />
    <glyph glyph-name="i" unicode="i" horiz-adv-x="129" 
d="M40 500h49v-500h-49v500z" />
    <glyph glyph-name="j" unicode="j" horiz-adv-x="248" 
d="M208 132q0 -57 -22.5 -89t-51.5 -40t-56.5 6.5t-37.5 52.5l9 3q8 -31 26 -40t36.5 1t32.5 37t14 69v368h50v-368z" />
    <glyph glyph-name="k" unicode="k" horiz-adv-x="400" 
d="M307 500l-180 -218l233 -282h-65l-206 249v-249h-49v500h49v-251l208 251h10z" />
    <glyph glyph-name="l" unicode="l" horiz-adv-x="338" 
d="M40 0v500h49v-492h209v-8h-258z" />
    <glyph glyph-name="m" unicode="m" horiz-adv-x="510" 
d="M470 500v-500h-49v477l-182 -477h-9l-182 479v-479h-8v500h54l163 -430l164 430h49z" />
    <glyph glyph-name="n" unicode="n" horiz-adv-x="426" 
d="M98 500l280 -486v486h8v-500h-57l-281 486v-486h-8v500h58z" />
    <glyph glyph-name="o" unicode="o" horiz-adv-x="580" 
d="M290 500q52 0 97.5 -19.5t79.5 -53.5t53.5 -79.5t19.5 -97.5t-19.5 -97.5t-53.5 -79.5t-79.5 -53.5t-97.5 -19.5t-97.5 19.5t-79.5 53.5t-53.5 79.5t-19.5 97.5t19.5 97.5t53.5 79.5t79.5 53.5t97.5 19.5zM290 492q-40 0 -75 -19t-61.5 -52t-41.5 -77t-15 -94t15 -94
t41.5 -77t61.5 -52t75 -19t75 19t61.5 52t41.5 77t15 94t-15 94t-41.5 77t-61.5 52t-75 19z" />
    <glyph glyph-name="p" unicode="p" horiz-adv-x="362" 
d="M160 500q54 0 89.5 -19t53.5 -47t18 -61t-18 -61t-53.5 -47t-89.5 -19h-70v-246h-50v492v8h50h70zM153 254q38 0 63 17.5t37.5 44t12.5 57.5t-12.5 57.5t-37.5 44t-63 17.5h-63v-238h63z" />
    <glyph glyph-name="q" unicode="q" horiz-adv-x="579" 
d="M421 -101q-24 -1 -41 9t-29.5 26t-21 34t-16.5 33q-6 -1 -12 -1h-11q-52 0 -97.5 19.5t-79.5 53.5t-53.5 79.5t-19.5 97.5t19.5 97.5t53.5 79.5t79.5 53.5t97.5 19.5t97 -19.5t79 -53.5t53.5 -79.5t19.5 -97.5q0 -48 -17 -90.5t-46 -75.5t-69 -54.5t-86 -27.5
q7 -15 16 -31.5t20.5 -31t27 -23.5t36.5 -8v-9zM309 9q-4 6 -5 8q-8 11 -22.5 24.5t-32.5 17.5v7q10 -1 20 -6.5t17.5 -12t13.5 -13.5t9 -11l4 -6t4 -7q35 6 65 27.5t52.5 53.5t35.5 72.5t13 86.5q0 50 -15.5 94t-41.5 77t-61 52t-75 19t-75 -19t-61.5 -52t-41.5 -77
t-15 -94t15 -94t41.5 -77t61.5 -52t75 -19h9.5t9.5 1z" />
    <glyph glyph-name="r" unicode="r" horiz-adv-x="376" 
d="M193 248l143 -248h-57l-142 246h-47v-246h-50v500h120q51 0 86 -17t54 -43t21.5 -57t-11 -59t-43 -49t-74.5 -27zM154 254q38 0 63 17.5t37.5 44t12.5 57.5t-12.5 57.5t-37.5 44t-63 17.5h-64v-238h64z" />
    <glyph glyph-name="s" unicode="s" horiz-adv-x="357" 
d="M89 71q20 -28 46 -47.5t63 -19.5q35 0 60 26q24 27 24 63q0 28 -15 49q-8 10 -17 18.5t-18 16.5q-14 12 -29.5 22.5t-31.5 21.5q-12 8 -24.5 16t-24.5 17h1l-4 2t-4 3q-8 6 -15.5 12t-14.5 13q-21 19 -34 46q-11 27 -11 55q0 51 33 89q18 20 39.5 29t45.5 9
q42 0 69.5 -20t49.5 -53l-9 -7q-20 29 -46 48.5t-63 19.5q-36 0 -60 -27t-24 -62q0 -26 15 -49q8 -11 17 -19.5t18 -15.5q29 -23 61 -44q12 -8 24.5 -16t24.5 -17q3 -3 7 -5q8 -6 15.5 -12.5t14.5 -13.5q22 -19 34 -46q11 -27 11 -54t-8.5 -49t-24.5 -40q-18 -20 -39.5 -29
t-45.5 -9q-42 0 -69.5 20t-49.5 52z" />
    <glyph glyph-name="t" unicode="t" horiz-adv-x="415" 
d="M375 492h-142v-492h-49v492h-144v8h335v-8z" />
    <glyph glyph-name="u" unicode="u" horiz-adv-x="397" 
d="M40 500h50v-354q0 -50 19 -81t48 -44.5t62.5 -11t62.5 19t48 46.5t19 71v354h8v-354q0 -51 -23.5 -84t-58.5 -48t-76.5 -13.5t-76.5 18.5t-58.5 49t-23.5 78v354z" />
    <glyph glyph-name="v" unicode="v" horiz-adv-x="356" 
d="M316 500l-134 -500h-8l-134 500h51l108 -404l109 404h8z" />
    <glyph glyph-name="w" unicode="w" horiz-adv-x="550" 
d="M510 500l-134 -500h-8l-93 347l-93 -347h-8l-134 500h52l108 -404l71 267l-37 137h52l108 -404l108 404h8z" />
    <glyph glyph-name="x" unicode="x" horiz-adv-x="426" 
d="M62 0l133 230l-155 270h57l127 -220l127 220h9l-131 -228l157 -272h-58l-128 222l-129 -222h-9z" />
    <glyph glyph-name="y" unicode="y" horiz-adv-x="401" 
d="M235 281v-281h-50v250l-145 250h58l127 -220l127 220h9z" />
    <glyph glyph-name="z" unicode="z" horiz-adv-x="427" 
d="M102 8h239v-8h-301l284 492h-233v8h295h1l-1 -1z" />
    <glyph glyph-name="zero" unicode="0" horiz-adv-x="480" 
d="M240 488q42 0 78.5 -19.5t63.5 -53.5t42.5 -79.5t15.5 -97.5t-15.5 -97.5t-42.5 -79.5t-63.5 -53.5t-78.5 -19.5q-41 0 -77.5 19.5t-63.5 53.5t-43 79.5t-16 97.5t16 97.5t43 79.5t63.5 53.5t77.5 19.5zM240 480q-31 0 -58.5 -19t-47.5 -52t-32 -77t-12 -94t12 -94
t32 -76.5t47.5 -51.5t58.5 -19t58.5 19t47.5 51.5t32 76.5t12 94t-12 94t-32 77t-47.5 52t-58.5 19z" />
    <glyph glyph-name="one" unicode="1" horiz-adv-x="168" 
d="M40 492v8h88v-500h-50v492h-38z" />
    <glyph glyph-name="two" unicode="2" 
d="M380 347q0 -41 -24 -68t-60 -46t-78.5 -34.5t-79 -34.5t-62 -45t-26.5 -66h323v-50h-333v50q0 38 21.5 66.5t53.5 52t70 43t70 39.5t53.5 42.5t21.5 50.5v16q0 7 -3 26.5t-16 40t-39 36.5t-71 16q-31 0 -52.5 -5.5t-36.5 -14.5t-24 -19.5t-13 -20.5q1 0 2 0.5t2 0.5
q9 0 15.5 -7t6.5 -16t-6.5 -15.5t-15.5 -6.5t-15.5 6.5t-6.5 15.5q0 6 2 9q3 16 14.5 31.5t30.5 27.5t44 19.5t55 7.5t61 -6.5t57 -21t42.5 -37.5t16.5 -56v-27z" />
    <glyph glyph-name="three" unicode="3" horiz-adv-x="403" 
d="M363 110q0 -33 -16.5 -56t-42.5 -37.5t-57 -21t-61 -6.5t-55 7.5t-44 19.5t-30.5 27.5t-14.5 31.5q-2 3 -2 9q0 9 6.5 15.5t15.5 6.5t15.5 -6.5t6.5 -15.5t-6.5 -15.5t-15.5 -6.5h-4q4 -10 13 -20.5t24 -19.5t36.5 -14.5t52.5 -5.5q45 0 71 16t39 36.5t16 40t3 26.5v3
q0 4 -2.5 22t-15.5 38.5t-39 37t-74 16.5h-35v8h35q48 0 74 16.5t39 37t15.5 38.5t2.5 22v3q0 7 -3 26.5t-16 40t-39 36.5t-71 16q-31 0 -52.5 -5.5t-36.5 -14.5t-24 -19.5t-13 -20.5q1 0 2 0.5t2 0.5q9 0 15.5 -7t6.5 -16t-6.5 -15.5t-15.5 -6.5t-15.5 6.5t-6.5 15.5
q0 6 2 9q3 16 14.5 31.5t30.5 27.5t44 19.5t55 7.5t61 -6.5t57 -21t42.5 -37.5t16.5 -56v-27q0 -25 -11 -43t-27 -30.5t-34 -20t-32 -11.5q14 -3 32 -10.5t34 -20t27 -31t11 -43.5v-27z" />
    <glyph glyph-name="four" unicode="4" horiz-adv-x="444" 
d="M298 143h106v-8h-106v-135h-50v135h-208l208 360h50v-352zM54 143h194v336z" />
    <glyph glyph-name="five" unicode="5" horiz-adv-x="403" 
d="M63 495h270v-50h-262v-194q5 6 14 12.5t23 12t33 9t45 3.5q37 -1 69.5 -13t56.5 -32t37.5 -47.5t13.5 -58.5v-27q0 -33 -16.5 -56t-42 -37.5t-56.5 -21t-61 -6.5t-55 7.5t-44 19.5t-31 27.5t-15 31.5q-2 6 -2 9q0 9 6.5 15.5t16.5 6.5q9 0 15.5 -6.5t6.5 -15.5
t-6.5 -15.5t-15.5 -6.5h-4q4 -10 13 -20.5t23.5 -19.5t36.5 -14.5t53 -5.5q45 0 71 16t38.5 36.5t16 40t3.5 26.5v16q0 43 -15.5 71.5t-39 45t-52.5 22t-56 2t-48.5 -15t-31.5 -29.5h-8v262z" />
    <glyph glyph-name="six" unicode="6" horiz-adv-x="429" 
d="M40 278q0 58 16.5 99t42.5 67.5t58 38.5t62 12q61 0 99 -26.5t47 -62.5v-6q0 -9 -6.5 -15.5t-15.5 -6.5t-15.5 6.5t-6.5 15.5t6.5 16t15.5 7q4 0 12 -4q-5 9 -14 20.5t-24.5 21.5t-38.5 16.5t-56 4.5q-45 -3 -70.5 -24t-39 -51t-18 -64.5t-5.5 -64.5v-30q24 22 56 34.5
t69 12.5q36 0 68 -12t56 -33t37.5 -49.5t13.5 -60.5t-13.5 -60t-37.5 -49t-56 -33t-68 -12t-67.5 12t-55.5 33t-37.5 49t-13.5 60v138zM214 -5q26 0 48.5 11.5t39.5 31t27 46t10 56.5t-10 57t-27 46.5t-39.5 31t-48.5 11.5t-48.5 -11.5t-39.5 -31t-27 -46.5t-10 -57
t10 -56.5t27 -46t39.5 -31t48.5 -11.5z" />
    <glyph glyph-name="seven" unicode="7" horiz-adv-x="354" 
d="M150 0h-50v39q0 54 14.5 92.5t36.5 68t47.5 53.5t48 51t38.5 60.5t19 80.5h-264v50h274v-50q0 -38 -12 -71t-30.5 -64t-39.5 -61t-39.5 -62.5t-30.5 -68.5t-12 -79v-39z" />
    <glyph glyph-name="eight" unicode="8" horiz-adv-x="429" 
d="M215 -14q-36 0 -68 11t-56 30t-37.5 45t-13.5 55q0 26 10.5 49t29 41t43.5 31t55 18q-47 10 -77.5 40.5t-30.5 72.5q0 24 11.5 45t31 37t46 25t56.5 9t56 -9t45.5 -25t31 -37t11.5 -45q0 -42 -30.5 -72.5t-77.5 -40.5q30 -5 55 -18t43.5 -31t29 -41t10.5 -49
q0 -29 -13.5 -55t-37.5 -45t-55.5 -30t-67.5 -11zM211 269h8q21 1 39 9.5t31.5 23.5t21 34.5t7.5 42.5q0 22 -8 42t-22 35t-33 23.5t-40 8.5t-40 -8.5t-33 -23.5t-22 -35t-8 -42q0 -23 7.5 -42.5t21 -34.5t31.5 -23.5t39 -9.5zM215 -6q26 0 48.5 10.5t39.5 28.5t27 42.5
t10 51.5q0 28 -10 52.5t-27 42.5t-39.5 28.5t-48.5 10.5t-48.5 -10.5t-39.5 -28.5t-27 -42.5t-10 -52.5q0 -27 10 -51.5t27 -42.5t39.5 -28.5t48.5 -10.5z" />
    <glyph glyph-name="nine" unicode="9" horiz-adv-x="429" 
d="M389 202q0 -58 -16.5 -99t-42.5 -67t-58 -38t-62 -12q-61 0 -99 26.5t-47 61.5q0 2 -0.5 3.5t-0.5 3.5q0 9 6.5 15.5t16.5 6.5q9 0 15.5 -6.5t6.5 -15.5q0 -10 -6.5 -16.5t-15.5 -6.5q-6 0 -12 3q4 -9 13.5 -20.5t25 -21.5t38.5 -16t56 -4q45 3 70.5 24t39 51t17.5 64
t5 64v30q-23 -21 -55.5 -33.5t-69.5 -12.5q-36 0 -67.5 12t-55.5 33t-37.5 49t-13.5 60t13.5 60t37.5 49t55.5 33.5t67.5 12.5t68 -12.5t56 -33.5t37.5 -49t13.5 -60v-138zM214 486q-26 0 -48.5 -11.5t-39.5 -31t-27 -46.5t-10 -57t10 -56.5t27 -46t39.5 -31t48.5 -11.5
t48.5 11.5t39.5 31t27 46t10 56.5t-10 57t-27 46.5t-39.5 31t-48.5 11.5z" />
    <glyph glyph-name="asciitilde" unicode="~" horiz-adv-x="355" 
d="M41 197q-2 35 12.5 55t39 26.5t55 1t59.5 -21.5t51.5 -17t36 7.5t16.5 23t-7 28.5q11 -9 10.5 -24t-10.5 -29.5t-29.5 -24.5t-46.5 -10q-18 0 -37.5 8t-39 16.5t-37.5 15.5t-32.5 5t-25.5 -15.5t-15 -44.5z" />
    <glyph glyph-name="exclam" unicode="!" horiz-adv-x="130" 
d="M40 500h50l-22 -394h-8zM65 3q-10 0 -16.5 6.5t-6.5 16.5q0 9 6.5 15.5t16.5 6.5q9 0 15.5 -6.5t6.5 -15.5q0 -10 -6.5 -16.5t-15.5 -6.5z" />
    <glyph glyph-name="at" unicode="@" horiz-adv-x="596" 
d="M194 258q0 28 8 54.5t23 46.5t35.5 32.5t46.5 12.5h17h50v-8v-192q0 -29 8 -49t21 -32t29.5 -16t34.5 -1q35 8 58 40t23 91v14q0 52 -19.5 97.5t-53.5 79.5t-79.5 53.5t-97.5 19.5t-97.5 -19.5t-79.5 -53.5t-53.5 -79.5t-19.5 -97.5t19.5 -97.5t53.5 -79.5t79.5 -53.5
t97.5 -19.5q72 0 132 37l4 -7q-62 -39 -136 -39q-54 0 -101 20.5t-82 55.5t-55 82t-20 101q0 53 20 100t55 82t82 55.5t101 20.5t101 -20.5t82 -55.5t55 -82t20 -100v-14q0 -23 -5 -45.5t-15.5 -41.5t-27.5 -32.5t-40 -17.5q-35 -6 -72 6.5t-57 44.5q-11 -28 -35 -39
t-48.5 -5t-43 30t-18.5 67v54zM324 396h-2q-14 0 -28 -6.5t-25 -22.5t-18 -42.5t-7 -66.5v-54q0 -36 12.5 -60t27.5 -27t27.5 19t12.5 79v181z" />
    <glyph glyph-name="numbersign" unicode="#" horiz-adv-x="533" 
d="M439 155v-8h-122l-39 -145h-8l39 145h-128l-39 -145h-8l39 145h-133v8h135l52 192h-133v8h135l39 145h8l-39 -145h128l39 145h8l-39 -145h120v-8h-122l-52 -192h120zM183 155h128l52 192h-128z" />
    <glyph glyph-name="dollar" unicode="$" horiz-adv-x="357" 
d="M183 -56h-8v47q-32 5 -54.5 24t-40.5 47l9 7q16 -24 37 -42t49 -24v212q-2 1 -4 3q-23 14 -49 33q-2 2 -3.5 2.5t-3.5 2.5q-8 6 -15.5 12t-15.5 13q-10 10 -18.5 21t-14.5 25q-6 13 -8.5 27t-2.5 28q0 51 33 89q18 20 39.5 29t45.5 9h8.5t8.5 -1v49h8v-50
q31 -6 53.5 -24.5t40.5 -46.5l-9 -7q-17 24 -37.5 42t-47.5 24v-213l3 -2q12 -8 24.5 -16t23.5 -17q2 -2 4 -2.5t4 -2.5q8 -6 15.5 -12t14.5 -13q10 -10 18.5 -21t15.5 -25q11 -27 11 -55q0 -27 -8.5 -49t-24.5 -40q-18 -20 -39.5 -29t-45.5 -9q-11 0 -16 1v-46zM175 288
v208q-4 1 -8 1h-8q-37 0 -60 -27q-24 -26 -24 -62q0 -28 15 -49q7 -10 16.5 -19t18.5 -16q12 -10 24.5 -19t25.5 -17zM183 210v-208q5 -1 15 -1q36 0 60 27q24 26 24 62q0 27 -16 49q-7 10 -16.5 19t-17.5 16q-12 10 -24.5 19t-24.5 17z" />
    <glyph glyph-name="percent" unicode="%" horiz-adv-x="524" 
d="M364 2q-25 0 -46.5 9.5t-37.5 26t-25.5 38.5t-9.5 47t9.5 47.5t25.5 39t37.5 26t46.5 9.5t47 -9.5t38 -26t25.5 -39t9.5 -47.5t-9.5 -47t-25.5 -38.5t-38 -26t-47 -9.5zM160 500q25 0 46.5 -9.5t37.5 -26t25.5 -39t9.5 -47.5t-9.5 -47t-25.5 -38.5t-37.5 -26t-46.5 -9.5
t-46.5 9.5t-38 26t-26 38.5t-9.5 47t9.5 47.5t26 39t38 26t46.5 9.5zM114 2l287 498h10l-288 -498h-9zM364 6q15 0 27.5 9t22 25t15 37.5t5.5 45.5t-5.5 45.5t-15 37.5t-22 25.5t-27.5 9.5q-29 0 -49 -34.5t-20 -83.5t20 -83t49 -34zM160 496q-15 0 -27.5 -9.5t-22 -25.5
t-15 -37.5t-5.5 -45.5t5.5 -45.5t15 -37.5t22 -25t27.5 -9q29 0 49 34t20 83t-20 83.5t-49 34.5z" />
    <glyph glyph-name="asciicircum" unicode="^" horiz-adv-x="281" 
d="M231 334l-91 158l-91 -158h-9l96 166h9l96 -166h-10z" />
    <glyph glyph-name="ampersand" unicode="&#x26;" horiz-adv-x="483" 
d="M265 56q-36 -38 -79 -48q-35 -9 -62 -0.5t-46 27.5t-28.5 44t-9.5 50q0 33 25 68.5t64 67.5l-14 25q-26 45 -28.5 83t10 66.5t37 44.5t53.5 16t55 -19.5t37 -47.5t0.5 -60t-54.5 -57q-27 -15 -50 -31l50 -86q18 -31 34 -54.5t30 -41.5q16 27 25.5 53.5t14.5 49.5t6 42
t1 30h6q0 -52 -12 -98.5t-35 -83.5q30 -36 53.5 -48.5t40.5 -10t29 16t20 30.5h5q-10 -23 -25.5 -44.5t-37 -31t-50.5 -0.5t-65 48zM136 254q-29 -26 -37.5 -54t-8.5 -71q0 -32 16 -58.5t41 -38.5t55 -6.5t57 36.5q-17 20 -36.5 47.5t-40.5 64.5zM170 294q12 8 24 15t25 14
q36 18 48.5 45t6.5 53t-28.5 46t-56.5 24t-48.5 -14t-15 -45.5t9 -60t24.5 -57.5z" />
    <glyph glyph-name="asterisk" unicode="*" horiz-adv-x="245" 
d="M182 356l-35 -22l-25 68l-25 -68l-35 22l56 58l-78 -17v41l78 -16l-16 78h41l-17 -78l79 16v-41l-78 17z" />
    <glyph glyph-name="parenleft" unicode="(" horiz-adv-x="223" 
d="M183 -108q-18 6 -42.5 36.5t-47 79t-38 111t-15.5 132.5t13 129.5t33.5 105.5t46 78t50.5 47q-42 -53 -67.5 -148t-25.5 -212q0 -58 6.5 -111.5t19 -100t29.5 -84t38 -63.5z" />
    <glyph glyph-name="parenright" unicode=")" horiz-adv-x="222" 
d="M40 -108q21 26 38 63.5t29 84t19 100t7 111.5q0 117 -25.5 212t-67.5 148q25 -15 50 -47t45.5 -78t33.5 -105.5t13 -129.5t-15.5 -132.5t-38 -111t-46.5 -79t-42 -36.5z" />
    <glyph glyph-name="underscore" unicode="_" horiz-adv-x="399" 
d="M40 -48v8h319v-8h-319z" />
    <glyph glyph-name="plus" unicode="+" horiz-adv-x="399" 
d="M195 247h-155v8h155v155h8v-155h156v-8h-156v-156h-8v156z" />
    <glyph glyph-name="equal" unicode="=" horiz-adv-x="359" 
d="M40 192v8h279v-8h-279zM40 299v8h279v-8h-279z" />
    <glyph glyph-name="hyphen" unicode="-" horiz-adv-x="326" 
d="M40 246v8h246v-8h-246z" />
    <glyph glyph-name="bracketleft" unicode="[" horiz-adv-x="206" 
d="M90 -110v0h-50v0v8v704v8h50h76v-8h-76v-704h76v-8h-76z" />
    <glyph glyph-name="bracketright" unicode="]" horiz-adv-x="206" 
d="M40 -110v8h76v704h-76v8h76h50v-8v-704v-8v0h-50v0h-76z" />
    <glyph glyph-name="braceleft" unicode="{" horiz-adv-x="196" 
d="M67 250q18 0 37 -30t19 -98q0 -34 -1.5 -67t0 -61.5t9 -49.5t25.5 -31h-25q-7 0 -18 4.5t-21 20t-17.5 45t-7.5 79.5t-0.5 83t-3 54t-8 32.5t-15.5 18.5q10 7 15.5 18.5t8 32t3 53.5t0.5 84q0 50 7.5 79.5t17.5 45t21 20t18 4.5h25q-18 -11 -25.5 -32t-9 -49.5t0 -61.5
t1.5 -67q0 -68 -19 -97.5t-37 -29.5z" />
    <glyph glyph-name="braceright" unicode="}" horiz-adv-x="196" 
d="M130 250q-19 0 -37.5 29.5t-18.5 97.5q0 34 1.5 67t0 61.5t-9 49.5t-26.5 32h25q7 0 18 -4.5t21.5 -20t18 -45t7.5 -79.5q0 -51 0.5 -84t3 -53.5t7.5 -32t15 -18.5q-10 -7 -15 -18.5t-7.5 -32.5t-3 -54t-0.5 -83t-7.5 -79.5t-18 -45t-21.5 -20t-18 -4.5h-25
q19 10 26.5 31t9 49.5t0 61.5t-1.5 67q0 68 18.5 98t37.5 30z" />
    <glyph glyph-name="quoteright" unicode="&#x2019;" horiz-adv-x="131" 
d="M91 463q0 -41 -6 -60t-14.5 -24.5t-17 -2t-13.5 7.5q13 -6 20.5 -4.5t11 6.5t4 13t-0.5 15q-2 12 -6 17t-12 13q-6 4 -7 8q-3 4 -3 11q0 9 6.5 15.5t15.5 6.5t15.5 -6.5t6.5 -15.5z" />
    <glyph glyph-name="colon" unicode=":" horiz-adv-x="124" 
d="M62 95q-9 0 -15.5 6.5t-6.5 15.5t6.5 15.5t15.5 6.5t15.5 -6.5t6.5 -15.5t-6.5 -15.5t-15.5 -6.5zM62 362q-9 0 -15.5 6.5t-6.5 15.5q0 10 6.5 16.5t15.5 6.5t15.5 -6.5t6.5 -16.5q0 -9 -6.5 -15.5t-15.5 -6.5z" />
    <glyph glyph-name="semicolon" unicode=";" horiz-adv-x="132" 
d="M92 117q0 -41 -6.5 -60t-15 -24t-17 -1.5t-13.5 6.5q13 -6 20.5 -4.5t11 6.5t4 13t-0.5 15q-2 12 -6 17t-12 13q-3 2 -7 8q-3 4 -3 11q0 9 6.5 15.5t15.5 6.5q10 0 16.5 -6.5t6.5 -15.5zM69 362q-9 0 -15.5 6.5t-6.5 15.5q0 10 6.5 16.5t15.5 6.5q10 0 16.5 -6.5
t6.5 -16.5q0 -9 -6.5 -15.5t-16.5 -6.5z" />
    <glyph glyph-name="question" unicode="?" horiz-adv-x="359" 
d="M269 368q0 28 -8 50t-19.5 36.5t-25.5 22.5t-26 10q-11 2 -29 1t-37.5 -8t-37 -20.5t-27.5 -35.5h3q9 0 16 -6.5t7 -15.5t-7 -15.5t-16 -6.5t-15.5 6.5t-6.5 15.5q0 4 1 6v1q14 43 50 66.5t99 23.5q32 0 56 -12.5t40.5 -31.5t24.5 -42t8 -45v-29q0 -21 -10 -44t-28 -44
t-43 -38.5t-55 -28.5v-79h-8v83q26 11 47 31q17 17 32 46t15 74v29zM179 14q-9 0 -15.5 6.5t-6.5 16.5q0 9 6.5 15.5t15.5 6.5t15.5 -6.5t6.5 -15.5q0 -10 -6.5 -16.5t-15.5 -6.5z" />
    <glyph glyph-name="period" unicode="." horiz-adv-x="124" 
d="M62 1q-9 0 -15.5 6.5t-6.5 16.5q0 9 6.5 15.5t15.5 6.5t15.5 -6.5t6.5 -15.5q0 -10 -6.5 -16.5t-15.5 -6.5z" />
    <glyph glyph-name="fraction" unicode="&#x2044;" horiz-adv-x="342" 
d="M40 -39l253 579h9l-254 -579h-8z" />
    <glyph glyph-name="comma" unicode="," horiz-adv-x="131" 
d="M91 24q0 -41 -6 -60t-14.5 -24.5t-17 -2t-13.5 6.5q13 -6 20.5 -4.5t11 7t4 13.5t-0.5 15q-2 12 -6 17t-12 13q-6 4 -7 8q-3 4 -3 11q0 9 6.5 15.5t15.5 6.5t15.5 -6.5t6.5 -15.5z" />
    <glyph glyph-name="less" unicode="&#x3c;" horiz-adv-x="382" 
d="M40 255l302 175v-9l-294 -170l294 -170v-9l-302 174v9z" />
    <glyph glyph-name="bar" unicode="|" horiz-adv-x="88" 
d="M48 -39h-8v579h8v-579z" />
    <glyph glyph-name="yen" unicode="&#xa5;" horiz-adv-x="400" 
d="M57 216v8h127v27l-15 26h-112v8h107l-124 216h57l125 -216h4l125 216h9l-125 -216h102v-8h-103v-13v-40h103v-8h-103v-52v-163h-50v215h-127z" />
    <glyph glyph-name="Euro" unicode="&#x20ac;" horiz-adv-x="509" 
d="M40 216v8h85q-1 7 -1 13v14v12.5t1 13.5h-85v8h85q4 35 13.5 66.5t27.5 60.5q29 48 69 69.5t89 21.5q26 0 50.5 -6.5t47.5 -23.5q14 -11 25 -24t22 -28l-6 -6q-24 35 -49 52t-66 22q-50 0 -89 -29q-40 -30 -59 -84q-8 -22 -12 -45t-6 -46h137v-8h-138v-26v-27h138v-8
h-137q2 -24 6 -47t12 -44q19 -54 59 -84q39 -29 89 -29q41 5 66 22t49 52l6 -6q-11 -15 -22 -28t-25 -24q-23 -17 -47.5 -23.5t-50.5 -6.5q-49 0 -89 21.5t-69 69.5q-18 29 -27.5 60.5t-13.5 66.5h-85z" />
    <glyph glyph-name="backslash" unicode="\" horiz-adv-x="199" 
d="M150 1l-110 499h8l111 -499h-9z" />
    <glyph glyph-name="slash" unicode="/" horiz-adv-x="199" 
d="M40 1l111 499h8l-111 -499h-8z" />
    <glyph glyph-name="ring" unicode="&#x2da;" horiz-adv-x="187" 
d="M93 339q-22 0 -37.5 15t-15.5 38q0 22 15.5 37.5t37.5 15.5q23 0 38.5 -15.5t15.5 -37.5q0 -23 -15.5 -38t-38.5 -15zM93 346q20 0 33 13.5t13 32.5t-13 32t-33 13q-19 0 -32 -13t-13 -32t13 -32.5t32 -13.5z" />
    <glyph glyph-name="ordfeminine" unicode="&#xaa;" horiz-adv-x="265" 
d="M111 484l-63 -233h-8v0v0l15 55l35 132l17 62v0h7h1h43l67 -249h-52z" />
    <glyph glyph-name="ordmasculine" unicode="&#xba;" horiz-adv-x="320" 
d="M160 254q-25 0 -46.5 9.5t-38 26t-26 38.5t-9.5 47t9.5 47.5t26 39t38 26t46.5 9.5t46.5 -9.5t38 -26t26 -39t9.5 -47.5t-9.5 -47t-26 -38.5t-38 -26t-46.5 -9.5zM160 258q15 0 27.5 9t22 25t15 37.5t5.5 45.5t-5.5 45.5t-15 37.5t-22 25.5t-27.5 9.5q-14 0 -27 -9.5
t-22.5 -25.5t-15 -37.5t-5.5 -45.5q0 -49 20.5 -83t49.5 -34z" />
    <glyph glyph-name="onesuperior" unicode="&#xb9;" horiz-adv-x="168" 
d="M40 492v8h38v0h50v0v-8v-241h-50v241h-38z" />
    <glyph glyph-name="threesuperior" unicode="&#xb3;" horiz-adv-x="254" 
d="M42 286q-2 6 -2 8q0 10 6.5 16.5t15.5 6.5q10 0 16.5 -6.5t6.5 -16.5q0 -19 -19 -21q8 -8 23.5 -12.5t37.5 -2.5q21 2 32.5 19t12.5 37t-8 37.5t-29 20.5h-33v7h30q21 3 31 20t9 37.5t-12.5 37.5t-32.5 19q-22 2 -37.5 -2.5t-23.5 -11.5q19 -3 19 -22q0 -10 -6.5 -16.5
t-16.5 -6.5q-9 0 -15.5 6.5t-6.5 16.5q0 2 2 8q4 16 22.5 25t41.5 11.5t46.5 -1.5t38.5 -16q12 -11 18 -26.5t4 -31.5t-12.5 -30t-31.5 -20q21 -7 31.5 -21t12.5 -30t-4 -32t-18 -26q-15 -12 -38.5 -16t-46.5 -1.5t-41.5 11.5t-22.5 25z" />
    <glyph glyph-name="twosuperior" unicode="&#xb2;" horiz-adv-x="262" 
d="M62 434q-9 0 -15.5 6.5t-6.5 16.5q0 5 1 7q4 17 23.5 26.5t44.5 11t51 -4.5t43 -21t18.5 -32t-8 -33t-27.5 -29t-40 -20q-19 -6 -35 -10.5t-28 -10.5t-20.5 -15t-11.5 -24h170v-50h-179v50q0 20 15 34.5t34 28t37 28.5t24 36q5 21 -2.5 35t-21 20.5t-30.5 5t-31 -11.5
q8 -2 13 -7.5t5 -13.5q0 -10 -6.5 -16.5t-16.5 -6.5z" />
    <glyph glyph-name="copyright" unicode="&#xa9;" horiz-adv-x="578" 
d="M390 366l-3 -4q-16 23 -33 34t-43 14q-32 0 -58 -19q-27 -19 -39 -55q-7 -19 -9.5 -40t-2.5 -42t2.5 -42t9.5 -40q12 -36 39 -55q26 -19 58 -19q26 3 43 14t33 34l3 -4q-12 -19 -30 -34q-29 -20 -64 -20q-32 0 -58 14t-46 46q-28 47 -28 106t28 105q38 61 104 61
q35 0 64 -20q18 -15 30 -34zM289 500q52 0 97 -19.5t79 -53.5t53.5 -79.5t19.5 -96.5q0 -52 -19.5 -97.5t-53.5 -79.5t-79 -53.5t-97 -19.5t-97.5 19.5t-79 53.5t-53 79.5t-19.5 97.5q0 51 19.5 96.5t53 79.5t79 53.5t97.5 19.5zM289 492q-50 0 -94 -19t-77 -51.5t-52 -76.5
t-19 -94t19 -94t52 -77t77 -52t94 -19t94 19t77 52t52 77t19 94t-19 94t-52 76.5t-77 51.5t-94 19z" />
    <glyph glyph-name="registered" unicode="&#xae;" horiz-adv-x="578" 
d="M310 256l91 -157h-37l-89 156h-30v-156h-32v311v5h32h44q48 0 73.5 -22.5t28.5 -51t-17.5 -54t-63.5 -31.5zM285 260q36 0 54 23.5t18 51.5t-18 51.5t-54 23.5h-40v-150h40zM289 500q52 0 97 -19.5t79 -53.5t53.5 -79.5t19.5 -96.5q0 -52 -19.5 -97.5t-53.5 -79.5
t-79 -53.5t-97 -19.5t-97.5 19.5t-79 53.5t-53 79.5t-19.5 97.5q0 51 19.5 96.5t53 79.5t79 53.5t97.5 19.5zM289 492q-50 0 -94 -19t-77 -51.5t-52 -76.5t-19 -94t19 -94t52 -77t77 -52t94 -19t94 19t76.5 52t51.5 77t19 94t-19 94t-51.5 76.5t-76.5 51.5t-94 19z" />
    <glyph glyph-name="cedilla" unicode="&#xb8;" horiz-adv-x="176" 
d="M70 19l7 -2l-12 -50q39 -10 56 -28.5t13.5 -36t-27.5 -28t-67 -5.5q36 1 52.5 13t17.5 27t-13 30t-41 22z" />
    <glyph glyph-name="section" unicode="&#xa7;" horiz-adv-x="356" 
d="M88 -59q20 -29 46.5 -48.5t62.5 -19.5q37 0 60 27q24 27 24 62q0 28 -15 49q-7 11 -16.5 19.5t-18.5 15.5q-28 24 -61 44l-48 33q-2 2 -3.5 3t-3.5 2q-8 6 -15.5 12.5t-15.5 13.5q-21 20 -33 46q-11 23 -11 54q0 45 24 78q-4 5 -7.5 11t-5.5 12q-11 23 -11 54q0 53 33 89
q17 20 38.5 29t45.5 9q42 0 70 -20t49 -52l-8 -7q-20 28 -46.5 48t-63.5 20q-17 0 -32 -6.5t-28 -20.5q-11 -13 -17.5 -28.5t-6.5 -33.5q0 -28 16 -50q7 -10 16.5 -18.5t18.5 -16.5q14 -12 29.5 -22.5t30.5 -20.5q13 -8 25 -16.5t24 -16.5q2 -2 3.5 -3t3.5 -3q17 -12 31 -25
q10 -10 18.5 -21t14.5 -25q11 -23 11 -55q0 -45 -24 -78q7 -9 13 -22q11 -23 11 -55q0 -53 -33 -89q-17 -20 -39 -29t-46 -9q-42 0 -69.5 20t-49.5 53zM276 85q2 8 3.5 15.5t1.5 16.5q0 28 -15 49q-7 11 -16.5 19.5t-18.5 16.5q-14 12 -29.5 22.5t-31.5 20.5l-48 33
q-3 2 -7 6q-8 5 -15.5 11.5t-15.5 13.5q-1 1 -2 1.5t-2 2.5q-6 -15 -6 -33q0 -27 16 -49q7 -10 16.5 -18.5t18.5 -16.5q14 -12 29.5 -22.5t30.5 -21.5q23 -14 49 -33q4 -2 7 -5q17 -12 31 -25q1 -1 1.5 -2t2.5 -2z" />
    <glyph glyph-name="endash" unicode="&#x2013;" horiz-adv-x="455" 
d="M40 259h375v-15h-375v15z" />
    <glyph glyph-name="emdash" unicode="&#x2014;" horiz-adv-x="620" 
d="M40 254h540v-8h-540v8z" />
    <glyph glyph-name="trademark" unicode="&#x2122;" horiz-adv-x="579" 
d="M244 500v-8h-77v-241h-50v241h-77v8h77v0h50v0h77zM307 479v-228h-8v249h8h46l68 -180l68 180v0h50v-249h-50v226l-86 -226h-9z" />
    <glyph glyph-name="bullet" unicode="&#x2022;" horiz-adv-x="175" 
d="M87 203q-20 0 -33.5 14t-13.5 34t13.5 33.5t33.5 13.5t34 -13.5t14 -33.5t-14 -34t-34 -14z" />
    <glyph glyph-name="divide" unicode="&#xf7;" horiz-adv-x="396" 
d="M40 254h316v-8h-316v8zM198 95q-10 0 -16.5 6.5t-6.5 15.5t6.5 15.5t16.5 6.5q9 0 15.5 -6.5t6.5 -15.5t-6.5 -15.5t-15.5 -6.5zM198 362q-10 0 -16.5 6.5t-6.5 15.5q0 10 6.5 16.5t16.5 6.5q9 0 15.5 -6.5t6.5 -16.5q0 -9 -6.5 -15.5t-15.5 -6.5z" />
    <glyph glyph-name="acute" unicode="&#xb4;" horiz-adv-x="185" 
d="M40 339q24 28 44 48q17 17 34 28t24 2q7 -10 -8 -23t-36 -25q-25 -14 -58 -30z" />
    <glyph glyph-name="breve" unicode="&#x2d8;" horiz-adv-x="203" 
d="M102 423q-22 0 -34 12t-18 26q-7 17 -10 39q4 -13 12 -23q7 -9 19 -16t31 -8q18 1 30 8t19 16q8 10 12 23q-3 -22 -10 -39q-6 -14 -18 -26t-33 -12z" />
    <glyph glyph-name="tilde" unicode="&#x2dc;" horiz-adv-x="240" 
d="M41 337q-4 38 18.5 53.5t60.5 -8.5t54 -22.5t25 37.5q1 -27 -5.5 -42.5t-18 -21.5t-27.5 -2t-35 16q-37 24 -52 20.5t-20 -30.5z" />
    <glyph glyph-name="caron" unicode="&#x2c7;" horiz-adv-x="218" 
d="M109 343l-69 89l69 -46l69 46z" />
    <glyph glyph-name="dieresis" unicode="&#xa8;" horiz-adv-x="223" 
d="M62 343q-9 0 -15.5 6.5t-6.5 16.5q0 9 6.5 15.5t15.5 6.5t15.5 -6.5t6.5 -15.5q0 -10 -6.5 -16.5t-15.5 -6.5zM161 343q-9 0 -15.5 6.5t-6.5 16.5q0 9 6.5 15.5t15.5 6.5t15.5 -6.5t6.5 -15.5q0 -10 -6.5 -16.5t-15.5 -6.5z" />
    <glyph glyph-name="multiply" unicode="&#xd7;" horiz-adv-x="309" 
d="M269 363l-109 -109l109 -109l-6 -5l-109 109l-109 -109l-5 5l109 109l-109 109l5 6l109 -109l109 109z" />
    <glyph glyph-name="cent" unicode="&#xa2;" horiz-adv-x="316" 
d="M177 500v-73q18 0 35 -5t32 -16q18 -14 32 -35l-4 -4q-16 23 -33.5 35t-45.5 15h-8t-8 -1v-324q4 -1 8 -1h8q28 3 45.5 15t33.5 35l4 -4q-14 -21 -32 -35q-15 -12 -32 -16.5t-35 -4.5v-80h-8v80q-31 2 -56 16.5t-45 46.5q-28 47 -28 110q0 30 7 58t21 52q20 32 45 46.5
t56 16.5v73h8zM169 94v320q-21 -5 -37 -17q-28 -20 -40 -57q-8 -20 -10.5 -42t-2.5 -44t2.5 -44t10.5 -42q12 -37 40 -57q19 -14 37 -17z" />
    <glyph glyph-name="sterling" unicode="&#xa3;" horiz-adv-x="470" 
d="M55 216v8h68v57q0 48 12.5 84.5t33.5 62.5t47 41.5t53 22.5t52.5 6t44.5 -9q28 -12 39.5 -31.5t13.5 -40t-3 -37.5t-11 -23v-1q-6 -6 -16 -6q-9 0 -15.5 6.5t-6.5 15.5t6.5 15.5t15.5 6.5q12 0 19 -10q3 9 4 21.5t-2.5 25.5t-13 25.5t-27.5 21.5q-26 13 -60 9
t-64.5 -27.5t-51.5 -68t-21 -110.5v-57h163v-8h-163v-18q0 -6 -1.5 -19t-4 -28.5t-5 -32t-5.5 -28.5q22 -2 45.5 -10t48.5 -22q39 -23 71.5 -29t55.5 3.5t35.5 32.5t10.5 57q15 -61 -3 -96.5t-49.5 -49t-68 -7.5t-59.5 27q-22 20 -47.5 37t-51.5 28q-1 -3 -4.5 -11t-9.5 -17
t-14.5 -16.5t-19.5 -10.5q-14 -3 -25.5 -0.5t-19 9t-10 16.5t1.5 22q3 11 15 18.5t25 12t23 6t9 1.5q4 20 6 46.5t2 60.5v18h-68zM111 72q-10 -40 -24 -51.5t-25 -7t-15 18.5t7 26q5 7 22.5 12.5t34.5 1.5z" />
    <glyph glyph-name="germandbls" unicode="&#xdf;" horiz-adv-x="430" 
d="M198 242h-70v-238h94q38 0 63 17.5t37.5 44t12.5 57.5t-12.5 57.5t-37.5 44t-63 17.5h-24zM128 -4v-230h-50v476h-38v8h38v246h120q49 0 83 -15.5t53 -40t24 -53.5t-5 -56.5t-35 -50t-64 -32.5q47 -5 78 -25.5t45 -48.5t12 -59t-20.5 -57.5t-54 -44t-86.5 -17.5h-100z
M192 250q38 0 62.5 17.5t37.5 44t12.5 57.5t-12.5 57.5t-37.5 44t-62.5 17.5h-64v-238h64z" />
    <glyph glyph-name="AE" unicode="&#xc6;" horiz-adv-x="473" 
d="M370 254v-8h-146v-238h209v-8h-259v469l-125 -469h-9l134 500h259v-8h-209v-238h146z" />
    <glyph glyph-name="oe" unicode="&#x153;" horiz-adv-x="789" 
d="M686 254v-8h-146v-238h209v-8h-259v100q-34 -46 -86 -73t-114 -27q-52 0 -97.5 19.5t-79.5 53.5t-53.5 79.5t-19.5 97.5t19.5 97.5t53.5 79.5t79.5 53.5t97.5 19.5q62 0 114 -27t86 -73v100h259v-8h-209v-238h146zM290 492q-40 0 -75 -19t-61.5 -52t-41.5 -77t-15 -94
t15 -94t41.5 -77t61.5 -52t75 -19t75 19t61.5 52t41.5 77t15 94t-15 94t-41.5 77t-61.5 52t-75 19z" />
    <glyph glyph-name="minus" unicode="&#x2212;" horiz-adv-x="496" 
d="M40 259h416v-15h-416v15z" />
    <glyph glyph-name="quoteleft" unicode="&#x2018;" horiz-adv-x="131" 
d="M40 375q0 41 6 60t14.5 24.5t17 2t13.5 -7.5q-13 6 -20.5 4.5t-11 -6.5t-4 -13t0.5 -15q2 -12 6 -17t12 -13q6 -4 7 -8q3 -5 3 -11q0 -9 -6.5 -15.5t-15.5 -6.5t-15.5 6.5t-6.5 15.5z" />
    <glyph glyph-name="quotedblleft" unicode="&#x201c;" horiz-adv-x="213" 
d="M40 375q0 41 6 60t14.5 24.5t17 2t13.5 -7.5q-13 6 -20.5 4.5t-11 -6.5t-4 -13t0.5 -15q2 -12 6 -17t12 -13q6 -4 7 -8q3 -5 3 -11q0 -9 -6.5 -15.5t-15.5 -6.5t-15.5 6.5t-6.5 15.5zM122 375q0 41 6 60t14.5 24.5t17 2t13.5 -7.5q-13 6 -20.5 4.5t-11 -6.5t-4 -13
t0.5 -15q2 -12 6 -17t12 -13q6 -4 7 -8q3 -5 3 -11q0 -9 -6.5 -15.5t-15.5 -6.5t-15.5 6.5t-6.5 15.5z" />
    <glyph glyph-name="quotedblright" unicode="&#x201d;" horiz-adv-x="213" 
d="M173 463q0 -41 -6 -60t-14.5 -24.5t-17 -2t-13.5 7.5q13 -6 20.5 -4.5t11 6.5t4 13t-0.5 15q-2 12 -6 17t-12 13q-6 4 -7 8q-3 4 -3 11q0 9 6.5 15.5t15.5 6.5t15.5 -6.5t6.5 -15.5zM91 463q0 -41 -6 -60t-14.5 -24.5t-17 -2t-13.5 7.5q13 -6 20.5 -4.5t11 6.5t4 13
t-0.5 15q-2 12 -6 17t-12 13q-6 4 -7 8q-3 4 -3 11q0 9 6.5 15.5t15.5 6.5t15.5 -6.5t6.5 -15.5z" />
    <glyph glyph-name="dotaccent" unicode="&#x2d9;" horiz-adv-x="124" 
d="M62 441q-9 0 -15.5 6.5t-6.5 16.5q0 9 6.5 15.5t15.5 6.5t15.5 -6.5t6.5 -15.5q0 -10 -6.5 -16.5t-15.5 -6.5z" />
    <glyph glyph-name="hungarumlaut" unicode="&#x2dd;" horiz-adv-x="247" 
d="M40 395q15 33 30 58q13 21 26.5 36t22.5 8q4 -4 3 -10.5t-5.5 -14.5t-12 -16.5t-16.5 -17.5q-20 -20 -48 -43zM124 395q15 33 30 58q13 21 26.5 36t22.5 8q4 -4 3 -10.5t-5.5 -14.5t-12 -16.5t-16.5 -17.5q-20 -20 -48 -43z" />
    <glyph glyph-name="quotesingle" unicode="'" horiz-adv-x="109" 
d="M49 372q-6 37 -8 65q-2 24 0.5 44t14.5 19q11 -1 12 -21t-4 -44q-5 -28 -15 -63z" />
    <glyph glyph-name="quotedbl" unicode="&#x22;" horiz-adv-x="191" 
d="M49 372q-6 37 -8 65q-2 24 0.5 44t14.5 19q11 -1 12 -21t-4 -44q-5 -28 -15 -63zM131 372q-6 37 -8 65q-2 24 0.5 44t14.5 19q11 -1 12 -21t-4 -44q-5 -28 -15 -63z" />
    <glyph glyph-name="greater" unicode="&#x3e;" horiz-adv-x="382" 
d="M342 247l-302 -175v9l294 170l-294 170v9l302 -174v-9z" />
    <glyph glyph-name="degree" unicode="&#xb0;" horiz-adv-x="187" 
d="M93 394q-22 0 -37.5 15t-15.5 38q0 22 15.5 37.5t37.5 15.5q23 0 38.5 -15.5t15.5 -37.5q0 -23 -15.5 -38t-38.5 -15zM93 401q20 0 33 13.5t13 32.5t-13 32t-33 13q-19 0 -32 -13t-13 -32t13 -32.5t32 -13.5z" />
    <glyph glyph-name="brokenbar" unicode="&#xa6;" horiz-adv-x="88" 
d="M48 -39h-8v579h8v-579z" />
    <glyph glyph-name="circumflex" unicode="&#x2c6;" horiz-adv-x="218" 
d="M109 422l69 -89l-69 46l-69 -46z" />
    <glyph glyph-name="perthousand" unicode="&#x2030;" horiz-adv-x="794" 
d="M364 2q-25 0 -46.5 9.5t-37.5 26t-25.5 38.5t-9.5 47t9.5 47.5t25.5 39t37.5 26t46.5 9.5t47 -9.5t38 -26t25.5 -39t9.5 -47.5t-9.5 -47t-25.5 -38.5t-38 -26t-47 -9.5zM160 500q25 0 46.5 -9.5t37.5 -26t25.5 -39t9.5 -47.5t-9.5 -47t-25.5 -38.5t-37.5 -26t-46.5 -9.5
t-46.5 9.5t-38 26t-26 38.5t-9.5 47t9.5 47.5t26 39t38 26t46.5 9.5zM114 2l287 498h10l-288 -498h-9zM364 6q15 0 27.5 9t22 25t15 37.5t5.5 45.5t-5.5 45.5t-15 37.5t-22 25.5t-27.5 9.5q-29 0 -49 -34.5t-20 -83.5t20 -83t49 -34zM160 496q-15 0 -27.5 -9.5t-22 -25.5
t-15 -37.5t-5.5 -45.5t5.5 -45.5t15 -37.5t22 -25t27.5 -9q29 0 49 34t20 83t-20 83.5t-49 34.5zM634 2q-25 0 -46.5 9.5t-37.5 26t-25.5 38.5t-9.5 47t9.5 47.5t25.5 39t37.5 26t46.5 9.5t47 -9.5t38 -26t25.5 -39t9.5 -47.5t-9.5 -47t-25.5 -38.5t-38 -26t-47 -9.5zM634 6
q15 0 27.5 9t22 25t15 37.5t5.5 45.5t-5.5 45.5t-15 37.5t-22 25.5t-27.5 9.5q-29 0 -49 -34.5t-20 -83.5t20 -83t49 -34z" />
    <glyph glyph-name="guilsinglleft" unicode="&#x2039;" horiz-adv-x="382" 
d="M40 255l302 244v-13l-294 -237l294 -235v-13l-302 241v13z" />
    <glyph glyph-name="guilsinglright" unicode="&#x203a;" horiz-adv-x="382" 
d="M342 245l-302 -244v13l294 237l-294 235v13l302 -241v-13z" />
    <glyph glyph-name="guillemotleft" unicode="&#xab;" horiz-adv-x="483" 
d="M40 255l302 244v-13l-294 -237l294 -235v-13l-302 241v13zM141 255l302 244v-13l-294 -237l294 -235v-13l-302 241v13z" />
    <glyph glyph-name="guillemotright" unicode="&#xbb;" horiz-adv-x="483" 
d="M443 245l-302 -244v13l294 237l-294 235v13l302 -241v-13zM342 245l-302 -244v13l294 237l-294 235v13l302 -241v-13z" />
    <glyph glyph-name="plusminus" unicode="&#xb1;" horiz-adv-x="399" 
d="M40 76v8h319v-8h-319zM195 267h-155v8h155v155h8v-155h156v-8h-156v-156h-8v156z" />
    <glyph glyph-name="grave" unicode="`" horiz-adv-x="185" 
d="M145 359q-33 16 -58 30q-11 6 -20.5 12.5t-16 12.5t-9 12t1.5 11q7 9 24 -2t34 -28q20 -20 44 -48z" />
    <glyph glyph-name="ogonek" unicode="&#x2db;" horiz-adv-x="176" 
d="M120 -39q-27 -7 -41 -22t-13.5 -30t17.5 -27t53 -13q-43 -5 -67 5.5t-27.5 28t13.5 36t56 28.5l-12 50l7 2z" />
    <glyph glyph-name="periodcentered" unicode="&#xb7;" horiz-adv-x="124" 
d="M62 228q-9 0 -15.5 6.5t-6.5 16.5q0 9 6.5 15.5t15.5 6.5t15.5 -6.5t6.5 -15.5q0 -10 -6.5 -16.5t-15.5 -6.5z" />
    <glyph glyph-name="OE" unicode="&#x152;" horiz-adv-x="789" 
d="M686 254v-8h-146v-238h209v-8h-259v100q-34 -46 -86 -73t-114 -27q-52 0 -97.5 19.5t-79.5 53.5t-53.5 79.5t-19.5 97.5t19.5 97.5t53.5 79.5t79.5 53.5t97.5 19.5q62 0 114 -27t86 -73v100h259v-8h-209v-238h146zM290 492q-40 0 -75 -19t-61.5 -52t-41.5 -77t-15 -94
t15 -94t41.5 -77t61.5 -52t75 -19t75 19t61.5 52t41.5 77t15 94t-15 94t-41.5 77t-61.5 52t-75 19z" />
    <glyph glyph-name="ae" unicode="&#xe6;" horiz-adv-x="473" 
d="M370 254v-8h-146v-238h209v-8h-259v469l-125 -469h-9l134 500h259v-8h-209v-238h146z" />
    <glyph glyph-name="quotesinglbase" unicode="&#x201a;" horiz-adv-x="131" 
d="M91 251q0 -41 -6 -60t-14.5 -24.5t-17 -2t-13.5 7.5q13 -6 20.5 -4.5t11 6.5t4 13t-0.5 15q-2 12 -6 17t-12 13q-6 4 -7 8q-3 4 -3 11q0 9 6.5 15.5t15.5 6.5t15.5 -6.5t6.5 -15.5z" />
    <glyph glyph-name="quotedblbase" unicode="&#x201e;" horiz-adv-x="221" 
d="M91 251q0 -41 -6 -60t-14.5 -24.5t-17 -2t-13.5 7.5q13 -6 20.5 -4.5t11 6.5t4 13t-0.5 15q-2 12 -6 17t-12 13q-6 4 -7 8q-3 4 -3 11q0 9 6.5 15.5t15.5 6.5t15.5 -6.5t6.5 -15.5zM181 251q0 -41 -6 -60t-14.5 -24.5t-17 -2t-13.5 7.5q13 -6 20.5 -4.5t11 6.5t4 13
t-0.5 15q-2 12 -6 17t-12 13q-6 4 -7 8q-3 4 -3 11q0 9 6.5 15.5t15.5 6.5t15.5 -6.5t6.5 -15.5z" />
    <glyph glyph-name="ellipsis" unicode="&#x2026;" horiz-adv-x="330" 
d="M62 1q-9 0 -15.5 6.5t-6.5 16.5q0 9 6.5 15.5t15.5 6.5t15.5 -6.5t6.5 -15.5q0 -10 -6.5 -16.5t-15.5 -6.5zM165 1q-9 0 -15.5 6.5t-6.5 16.5q0 9 6.5 15.5t15.5 6.5t15.5 -6.5t6.5 -15.5q0 -10 -6.5 -16.5t-15.5 -6.5zM268 1q-9 0 -15.5 6.5t-6.5 16.5q0 9 6.5 15.5
t15.5 6.5t15.5 -6.5t6.5 -15.5q0 -10 -6.5 -16.5t-15.5 -6.5z" />
    <glyph glyph-name="dagger" unicode="&#x2020;" horiz-adv-x="326" 
d="M167 -39h-8v579h8v-579zM286 372v8h-246v-8h246z" />
    <glyph glyph-name="daggerdbl" unicode="&#x2021;" horiz-adv-x="359" 
d="M183 -39h-8v579h8v-579zM319 192v8h-279v-8h279zM319 299v8h-279v-8h279z" />
    <glyph glyph-name="exclamdown" unicode="&#xa1;" horiz-adv-x="130" 
d="M90 2h-50l22 394h8zM65 499q10 0 16.5 -6.5t6.5 -16.5q0 -9 -6.5 -15.5t-16.5 -6.5q-9 0 -15.5 6.5t-6.5 15.5q0 10 6.5 16.5t15.5 6.5z" />
    <glyph glyph-name="dotlessi" unicode="&#x131;" horiz-adv-x="129" 
d="M40 500h49v-500h-49v500z" />
    <glyph glyph-name="fi" unicode="&#xfb01;" horiz-adv-x="339" 
d="M235 254h49v-254h-49v254zM236 254v-8h-146v-246h-50v500h259v-8h-209v-238h146z" />
    <glyph glyph-name="fl" unicode="&#xfb02;" horiz-adv-x="594" 
d="M296 0v500h49v-492h209v-8h-258zM236 254v-8h-146v-246h-50v500h259v-8h-209v-238h146z" />
    <glyph glyph-name="Lslash" unicode="&#x141;" horiz-adv-x="517" 
d="M219 0v500h49v-492h209v-8h-258zM40 259h375v-15h-375v15z" />
    <glyph glyph-name="lslash" unicode="&#x142;" horiz-adv-x="501" 
d="M203 0v500h49v-492h209v-8h-258zM40 259h375v-15h-375v15z" />
    <glyph glyph-name="florin" unicode="&#x192;" horiz-adv-x="339" 
d="M236 254v-8h-146v-246h-50v500h259v-8h-209v-238h146z" />
    <glyph glyph-name="Oslash" unicode="&#xd8;" horiz-adv-x="580" 
d="M214 -58l141 626h8l-141 -626h-8zM290 500q52 0 97.5 -19.5t79.5 -53.5t53.5 -79.5t19.5 -97.5t-19.5 -97.5t-53.5 -79.5t-79.5 -53.5t-97.5 -19.5t-97.5 19.5t-79.5 53.5t-53.5 79.5t-19.5 97.5t19.5 97.5t53.5 79.5t79.5 53.5t97.5 19.5zM290 492q-40 0 -75 -19
t-61.5 -52t-41.5 -77t-15 -94t15 -94t41.5 -77t61.5 -52t75 -19t75 19t61.5 52t41.5 77t15 94t-15 94t-41.5 77t-61.5 52t-75 19z" />
    <glyph glyph-name="oslash" unicode="&#xf8;" horiz-adv-x="580" 
d="M214 -58l141 626h8l-141 -626h-8zM290 500q52 0 97.5 -19.5t79.5 -53.5t53.5 -79.5t19.5 -97.5t-19.5 -97.5t-53.5 -79.5t-79.5 -53.5t-97.5 -19.5t-97.5 19.5t-79.5 53.5t-53.5 79.5t-19.5 97.5t19.5 97.5t53.5 79.5t79.5 53.5t97.5 19.5zM290 492q-40 0 -75 -19
t-61.5 -52t-41.5 -77t-15 -94t15 -94t41.5 -77t61.5 -52t75 -19t75 19t61.5 52t41.5 77t15 94t-15 94t-41.5 77t-61.5 52t-75 19z" />
    <glyph glyph-name="questiondown" unicode="&#xbf;" horiz-adv-x="359" 
d="M89 173q0 45 14.5 74t32.5 46q20 20 47 31v83h-8v-79q-30 -11 -55 -28.5t-43 -38.5t-28 -44t-10 -44v-29q0 -22 8 -45t24.5 -42t40.5 -31.5t56 -12.5q63 0 99 23.5t50 66.5v1q1 2 1 6q0 9 -6.5 15.5t-15.5 6.5t-16 -6.5t-7 -15.5t7 -15.5t16 -6.5h3q-10 -23 -27.5 -36
t-37 -20t-37.5 -8t-29 1q-12 1 -26 9.5t-25.5 23t-19.5 36t-8 50.5v29zM179 498q9 0 15.5 -6.5t6.5 -16.5q0 -9 -6.5 -15.5t-15.5 -6.5t-15.5 6.5t-6.5 15.5q0 10 6.5 16.5t15.5 6.5z" />
    <glyph glyph-name="Agrave" unicode="&#xc0;" 
d="M188 484l-130 -484h-8l134 500h52l134 -500h-52zM270 559q-33 16 -58 30q-11 6 -20.5 12.5t-16 12.5t-9 12t1.5 11q7 9 24 -2t34 -28q20 -20 44 -48z" />
    <glyph glyph-name="Aacute" unicode="&#xc1;" 
d="M188 484l-130 -484h-8l134 500h52l134 -500h-52zM149 539q24 28 44 48q17 17 34 28t24 2q7 -10 -8 -23t-36 -25q-25 -14 -58 -30z" />
    <glyph glyph-name="Acircumflex" unicode="&#xc2;" 
d="M188 484l-130 -484h-8l134 500h52l134 -500h-52zM210 622l69 -89l-69 46l-69 -46z" />
    <glyph glyph-name="Atilde" unicode="&#xc3;" 
d="M188 484l-130 -484h-8l134 500h52l134 -500h-52zM132 537q-4 38 18.5 53.5t60.5 -8.5t54 -22.5t25 37.5q1 -27 -5.5 -42.5t-18 -21.5t-27.5 -2t-35 16q-37 24 -52 20.5t-20 -30.5z" />
    <glyph glyph-name="Adieresis" unicode="&#xc4;" 
d="M188 484l-130 -484h-8l134 500h52l134 -500h-52zM160 543q-9 0 -15.5 6.5t-6.5 16.5q0 9 6.5 15.5t15.5 6.5t15.5 -6.5t6.5 -15.5q0 -10 -6.5 -16.5t-15.5 -6.5zM259 543q-9 0 -15.5 6.5t-6.5 16.5q0 9 6.5 15.5t15.5 6.5t15.5 -6.5t6.5 -15.5q0 -10 -6.5 -16.5
t-15.5 -6.5z" />
    <glyph glyph-name="Aring" unicode="&#xc5;" 
d="M188 484l-130 -484h-8l134 500h52l134 -500h-52zM209 539q-22 0 -37.5 15t-15.5 38q0 22 15.5 37.5t37.5 15.5q23 0 38.5 -15.5t15.5 -37.5q0 -23 -15.5 -38t-38.5 -15zM209 546q20 0 33 13.5t13 32.5t-13 32t-33 13q-19 0 -32 -13t-13 -32t13 -32.5t32 -13.5z" />
    <glyph glyph-name="Zcaron" unicode="&#x17d;" horiz-adv-x="427" 
d="M102 8h239v-8h-301l284 492h-233v8h295h1l-1 -1zM213 543l-69 89l69 -46l69 46z" />
    <glyph glyph-name="Ccedilla" unicode="&#xc7;" horiz-adv-x="426" 
d="M164 -39q27 -7 41 -22t13 -30t-17.5 -27t-52.5 -13q43 -5 67 5.5t27.5 28t-13.5 36t-56 28.5l12 50l-7 2zM386 420l-6 -5q-24 34 -49 51t-66 22q-49 0 -90 -29q-40 -29 -58 -83q-11 -30 -15.5 -62t-4.5 -64t4.5 -64t15.5 -62q18 -54 58 -83q41 -29 90 -29q41 5 66 22
t49 51l6 -6q-11 -15 -22.5 -28t-25.5 -23q-22 -17 -46.5 -24t-50.5 -7q-49 0 -89 22t-69 70q-23 35 -32.5 75.5t-10.5 85.5q1 45 10.5 85t32.5 76q29 48 69 70t89 22q26 0 50.5 -7t46.5 -24q14 -10 25.5 -23t22.5 -29z" />
    <glyph glyph-name="Egrave" unicode="&#xc8;" horiz-adv-x="338" 
d="M235 254v-8h-145v-238h208v-8h-258v500h258v-8h-208v-238h145zM229 559q-33 16 -58 30q-11 6 -20.5 12.5t-16 12.5t-9 12t1.5 11q7 9 24 -2t34 -28q20 -20 44 -48z" />
    <glyph glyph-name="Eacute" unicode="&#xc9;" horiz-adv-x="338" 
d="M235 254v-8h-145v-238h208v-8h-258v500h258v-8h-208v-238h145zM108 539q24 28 44 48q17 17 34 28t24 2q7 -10 -8 -23t-36 -25q-25 -14 -58 -30z" />
    <glyph glyph-name="Ecircumflex" unicode="&#xca;" horiz-adv-x="338" 
d="M235 254v-8h-145v-238h208v-8h-258v500h258v-8h-208v-238h145zM169 622l69 -89l-69 46l-69 -46z" />
    <glyph glyph-name="Edieresis" unicode="&#xcb;" horiz-adv-x="338" 
d="M235 254v-8h-145v-238h208v-8h-258v500h258v-8h-208v-238h145zM119 543q-9 0 -15.5 6.5t-6.5 16.5q0 9 6.5 15.5t15.5 6.5t15.5 -6.5t6.5 -15.5q0 -10 -6.5 -16.5t-15.5 -6.5zM218 543q-9 0 -15.5 6.5t-6.5 16.5q0 9 6.5 15.5t15.5 6.5t15.5 -6.5t6.5 -15.5
q0 -10 -6.5 -16.5t-15.5 -6.5z" />
    <glyph glyph-name="Igrave" unicode="&#xcc;" horiz-adv-x="129" 
d="M40 500h49v-500h-49v500zM125 559q-33 16 -58 30q-11 6 -20.5 12.5t-16 12.5t-9 12t1.5 11q7 9 24 -2t34 -28q20 -20 44 -48z" />
    <glyph glyph-name="Iacute" unicode="&#xcd;" horiz-adv-x="129" 
d="M40 500h49v-500h-49v500zM4 539q24 28 44 48q17 17 34 28t24 2q7 -10 -8 -23t-36 -25q-25 -14 -58 -30z" />
    <glyph glyph-name="Icircumflex" unicode="&#xce;" horiz-adv-x="129" 
d="M40 500h49v-500h-49v500zM65 622l69 -89l-69 46l-69 -46z" />
    <glyph glyph-name="Idieresis" unicode="&#xcf;" horiz-adv-x="129" 
d="M40 500h49v-500h-49v500zM15 543q-9 0 -15.5 6.5t-6.5 16.5q0 9 6.5 15.5t15.5 6.5t15.5 -6.5t6.5 -15.5q0 -10 -6.5 -16.5t-15.5 -6.5zM114 543q-9 0 -15.5 6.5t-6.5 16.5q0 9 6.5 15.5t15.5 6.5t15.5 -6.5t6.5 -15.5q0 -10 -6.5 -16.5t-15.5 -6.5z" />
    <glyph glyph-name="Eth" unicode="&#xd0;" horiz-adv-x="440" 
d="M153 8q64 0 106.5 36t64 89.5t21.5 116.5t-21.5 116.5t-64 89.5t-106.5 36h-63v-484h63zM40 0v500h113q82 0 137 -37t82.5 -92.5t27.5 -120.5t-27.5 -120.5t-82.5 -92.5t-137 -37h-113zM-76 246v8h246v-8h-246z" />
    <glyph glyph-name="Ntilde" unicode="&#xd1;" horiz-adv-x="426" 
d="M98 500l280 -486v486h8v-500h-57l-281 486v-486h-8v500h58zM135 537q-4 38 18.5 53.5t60.5 -8.5t54 -22.5t25 37.5q1 -27 -5.5 -42.5t-18 -21.5t-27.5 -2t-35 16q-37 24 -52 20.5t-20 -30.5z" />
    <glyph glyph-name="Ograve" unicode="&#xd2;" horiz-adv-x="580" 
d="M290 500q52 0 97.5 -19.5t79.5 -53.5t53.5 -79.5t19.5 -97.5t-19.5 -97.5t-53.5 -79.5t-79.5 -53.5t-97.5 -19.5t-97.5 19.5t-79.5 53.5t-53.5 79.5t-19.5 97.5t19.5 97.5t53.5 79.5t79.5 53.5t97.5 19.5zM290 492q-40 0 -75 -19t-61.5 -52t-41.5 -77t-15 -94t15 -94
t41.5 -77t61.5 -52t75 -19t75 19t61.5 52t41.5 77t15 94t-15 94t-41.5 77t-61.5 52t-75 19zM350 559q-33 16 -58 30q-11 6 -20.5 12.5t-16 12.5t-9 12t1.5 11q7 9 24 -2t34 -28q20 -20 44 -48z" />
    <glyph glyph-name="Oacute" unicode="&#xd3;" horiz-adv-x="580" 
d="M290 500q52 0 97.5 -19.5t79.5 -53.5t53.5 -79.5t19.5 -97.5t-19.5 -97.5t-53.5 -79.5t-79.5 -53.5t-97.5 -19.5t-97.5 19.5t-79.5 53.5t-53.5 79.5t-19.5 97.5t19.5 97.5t53.5 79.5t79.5 53.5t97.5 19.5zM290 492q-40 0 -75 -19t-61.5 -52t-41.5 -77t-15 -94t15 -94
t41.5 -77t61.5 -52t75 -19t75 19t61.5 52t41.5 77t15 94t-15 94t-41.5 77t-61.5 52t-75 19zM229 539q24 28 44 48q17 17 34 28t24 2q7 -10 -8 -23t-36 -25q-25 -14 -58 -30z" />
    <glyph glyph-name="Ocircumflex" unicode="&#xd4;" horiz-adv-x="580" 
d="M290 500q52 0 97.5 -19.5t79.5 -53.5t53.5 -79.5t19.5 -97.5t-19.5 -97.5t-53.5 -79.5t-79.5 -53.5t-97.5 -19.5t-97.5 19.5t-79.5 53.5t-53.5 79.5t-19.5 97.5t19.5 97.5t53.5 79.5t79.5 53.5t97.5 19.5zM290 492q-40 0 -75 -19t-61.5 -52t-41.5 -77t-15 -94t15 -94
t41.5 -77t61.5 -52t75 -19t75 19t61.5 52t41.5 77t15 94t-15 94t-41.5 77t-61.5 52t-75 19zM290 622l69 -89l-69 46l-69 -46z" />
    <glyph glyph-name="Otilde" unicode="&#xd5;" horiz-adv-x="580" 
d="M290 500q52 0 97.5 -19.5t79.5 -53.5t53.5 -79.5t19.5 -97.5t-19.5 -97.5t-53.5 -79.5t-79.5 -53.5t-97.5 -19.5t-97.5 19.5t-79.5 53.5t-53.5 79.5t-19.5 97.5t19.5 97.5t53.5 79.5t79.5 53.5t97.5 19.5zM290 492q-40 0 -75 -19t-61.5 -52t-41.5 -77t-15 -94t15 -94
t41.5 -77t61.5 -52t75 -19t75 19t61.5 52t41.5 77t15 94t-15 94t-41.5 77t-61.5 52t-75 19zM212 537q-4 38 18.5 53.5t60.5 -8.5t54 -22.5t25 37.5q1 -27 -5.5 -42.5t-18 -21.5t-27.5 -2t-35 16q-37 24 -52 20.5t-20 -30.5z" />
    <glyph glyph-name="Odieresis" unicode="&#xd6;" horiz-adv-x="580" 
d="M290 500q52 0 97.5 -19.5t79.5 -53.5t53.5 -79.5t19.5 -97.5t-19.5 -97.5t-53.5 -79.5t-79.5 -53.5t-97.5 -19.5t-97.5 19.5t-79.5 53.5t-53.5 79.5t-19.5 97.5t19.5 97.5t53.5 79.5t79.5 53.5t97.5 19.5zM290 492q-40 0 -75 -19t-61.5 -52t-41.5 -77t-15 -94t15 -94
t41.5 -77t61.5 -52t75 -19t75 19t61.5 52t41.5 77t15 94t-15 94t-41.5 77t-61.5 52t-75 19zM240 543q-9 0 -15.5 6.5t-6.5 16.5q0 9 6.5 15.5t15.5 6.5t15.5 -6.5t6.5 -15.5q0 -10 -6.5 -16.5t-15.5 -6.5zM339 543q-9 0 -15.5 6.5t-6.5 16.5q0 9 6.5 15.5t15.5 6.5
t15.5 -6.5t6.5 -15.5q0 -10 -6.5 -16.5t-15.5 -6.5z" />
    <glyph glyph-name="Ugrave" unicode="&#xd9;" horiz-adv-x="397" 
d="M40 500h50v-354q0 -50 19 -81t48 -44.5t62.5 -11t62.5 19t48 46.5t19 71v354h8v-354q0 -51 -23.5 -84t-58.5 -48t-76.5 -13.5t-76.5 18.5t-58.5 49t-23.5 78v354zM259 559q-33 16 -58 30q-11 6 -20.5 12.5t-16 12.5t-9 12t1.5 11q7 9 24 -2t34 -28q20 -20 44 -48z" />
    <glyph glyph-name="Uacute" unicode="&#xda;" horiz-adv-x="397" 
d="M40 500h50v-354q0 -50 19 -81t48 -44.5t62.5 -11t62.5 19t48 46.5t19 71v354h8v-354q0 -51 -23.5 -84t-58.5 -48t-76.5 -13.5t-76.5 18.5t-58.5 49t-23.5 78v354zM138 539q24 28 44 48q17 17 34 28t24 2q7 -10 -8 -23t-36 -25q-25 -14 -58 -30z" />
    <glyph glyph-name="Ucircumflex" unicode="&#xdb;" horiz-adv-x="397" 
d="M40 500h50v-354q0 -50 19 -81t48 -44.5t62.5 -11t62.5 19t48 46.5t19 71v354h8v-354q0 -51 -23.5 -84t-58.5 -48t-76.5 -13.5t-76.5 18.5t-58.5 49t-23.5 78v354zM198 622l69 -89l-69 46l-69 -46z" />
    <glyph glyph-name="Udieresis" unicode="&#xdc;" horiz-adv-x="397" 
d="M40 500h50v-354q0 -50 19 -81t48 -44.5t62.5 -11t62.5 19t48 46.5t19 71v354h8v-354q0 -51 -23.5 -84t-58.5 -48t-76.5 -13.5t-76.5 18.5t-58.5 49t-23.5 78v354zM149 543q-9 0 -15.5 6.5t-6.5 16.5q0 9 6.5 15.5t15.5 6.5t15.5 -6.5t6.5 -15.5q0 -10 -6.5 -16.5
t-15.5 -6.5zM248 543q-9 0 -15.5 6.5t-6.5 16.5q0 9 6.5 15.5t15.5 6.5t15.5 -6.5t6.5 -15.5q0 -10 -6.5 -16.5t-15.5 -6.5z" />
    <glyph glyph-name="Yacute" unicode="&#xdd;" horiz-adv-x="401" 
d="M235 281v-281h-50v250l-145 250h58l127 -220l127 220h9zM140 539q24 28 44 48q17 17 34 28t24 2q7 -10 -8 -23t-36 -25q-25 -14 -58 -30z" />
    <glyph glyph-name="agrave" unicode="&#xe0;" 
d="M188 484l-130 -484h-8l134 500h52l134 -500h-52zM270 559q-33 16 -58 30q-11 6 -20.5 12.5t-16 12.5t-9 12t1.5 11q7 9 24 -2t34 -28q20 -20 44 -48z" />
    <glyph glyph-name="aacute" unicode="&#xe1;" 
d="M188 484l-130 -484h-8l134 500h52l134 -500h-52zM149 539q24 28 44 48q17 17 34 28t24 2q7 -10 -8 -23t-36 -25q-25 -14 -58 -30z" />
    <glyph glyph-name="acircumflex" unicode="&#xe2;" 
d="M188 484l-130 -484h-8l134 500h52l134 -500h-52zM210 622l69 -89l-69 46l-69 -46z" />
    <glyph glyph-name="atilde" unicode="&#xe3;" 
d="M188 484l-130 -484h-8l134 500h52l134 -500h-52zM132 537q-4 38 18.5 53.5t60.5 -8.5t54 -22.5t25 37.5q1 -27 -5.5 -42.5t-18 -21.5t-27.5 -2t-35 16q-37 24 -52 20.5t-20 -30.5z" />
    <glyph glyph-name="adieresis" unicode="&#xe4;" 
d="M188 484l-130 -484h-8l134 500h52l134 -500h-52zM160 543q-9 0 -15.5 6.5t-6.5 16.5q0 9 6.5 15.5t15.5 6.5t15.5 -6.5t6.5 -15.5q0 -10 -6.5 -16.5t-15.5 -6.5zM259 543q-9 0 -15.5 6.5t-6.5 16.5q0 9 6.5 15.5t15.5 6.5t15.5 -6.5t6.5 -15.5q0 -10 -6.5 -16.5
t-15.5 -6.5z" />
    <glyph glyph-name="aring" unicode="&#xe5;" 
d="M188 484l-130 -484h-8l134 500h52l134 -500h-52zM209 539q-22 0 -37.5 15t-15.5 38q0 22 15.5 37.5t37.5 15.5q23 0 38.5 -15.5t15.5 -37.5q0 -23 -15.5 -38t-38.5 -15zM209 546q20 0 33 13.5t13 32.5t-13 32t-33 13q-19 0 -32 -13t-13 -32t13 -32.5t32 -13.5z" />
    <glyph glyph-name="ccedilla" unicode="&#xe7;" horiz-adv-x="426" 
d="M164 -39q27 -7 41 -22t13 -30t-17.5 -27t-52.5 -13q43 -5 67 5.5t27.5 28t-13.5 36t-56 28.5l12 50l-7 2zM386 420l-6 -5q-24 34 -49 51t-66 22q-49 0 -90 -29q-40 -29 -58 -83q-11 -30 -15.5 -62t-4.5 -64t4.5 -64t15.5 -62q18 -54 58 -83q41 -29 90 -29q41 5 66 22
t49 51l6 -6q-11 -15 -22.5 -28t-25.5 -23q-22 -17 -46.5 -24t-50.5 -7q-49 0 -89 22t-69 70q-23 35 -32.5 75.5t-10.5 85.5q1 45 10.5 85t32.5 76q29 48 69 70t89 22q26 0 50.5 -7t46.5 -24q14 -10 25.5 -23t22.5 -29z" />
    <glyph glyph-name="egrave" unicode="&#xe8;" horiz-adv-x="338" 
d="M235 254v-8h-145v-238h208v-8h-258v500h258v-8h-208v-238h145zM229 559q-33 16 -58 30q-11 6 -20.5 12.5t-16 12.5t-9 12t1.5 11q7 9 24 -2t34 -28q20 -20 44 -48z" />
    <glyph glyph-name="eacute" unicode="&#xe9;" horiz-adv-x="338" 
d="M235 254v-8h-145v-238h208v-8h-258v500h258v-8h-208v-238h145zM108 539q24 28 44 48q17 17 34 28t24 2q7 -10 -8 -23t-36 -25q-25 -14 -58 -30z" />
    <glyph glyph-name="ecircumflex" unicode="&#xea;" horiz-adv-x="338" 
d="M235 254v-8h-145v-238h208v-8h-258v500h258v-8h-208v-238h145zM169 622l69 -89l-69 46l-69 -46z" />
    <glyph glyph-name="edieresis" unicode="&#xeb;" horiz-adv-x="338" 
d="M235 254v-8h-145v-238h208v-8h-258v500h258v-8h-208v-238h145zM119 543q-9 0 -15.5 6.5t-6.5 16.5q0 9 6.5 15.5t15.5 6.5t15.5 -6.5t6.5 -15.5q0 -10 -6.5 -16.5t-15.5 -6.5zM218 543q-9 0 -15.5 6.5t-6.5 16.5q0 9 6.5 15.5t15.5 6.5t15.5 -6.5t6.5 -15.5
q0 -10 -6.5 -16.5t-15.5 -6.5z" />
    <glyph glyph-name="igrave" unicode="&#xec;" horiz-adv-x="129" 
d="M40 500h49v-500h-49v500zM125 559q-33 16 -58 30q-11 6 -20.5 12.5t-16 12.5t-9 12t1.5 11q7 9 24 -2t34 -28q20 -20 44 -48z" />
    <glyph glyph-name="iacute" unicode="&#xed;" horiz-adv-x="129" 
d="M40 500h49v-500h-49v500zM4 539q24 28 44 48q17 17 34 28t24 2q7 -10 -8 -23t-36 -25q-25 -14 -58 -30z" />
    <glyph glyph-name="icircumflex" unicode="&#xee;" horiz-adv-x="129" 
d="M40 500h49v-500h-49v500zM65 622l69 -89l-69 46l-69 -46z" />
    <glyph glyph-name="idieresis" unicode="&#xef;" horiz-adv-x="129" 
d="M40 500h49v-500h-49v500zM15 543q-9 0 -15.5 6.5t-6.5 16.5q0 9 6.5 15.5t15.5 6.5t15.5 -6.5t6.5 -15.5q0 -10 -6.5 -16.5t-15.5 -6.5zM114 543q-9 0 -15.5 6.5t-6.5 16.5q0 9 6.5 15.5t15.5 6.5t15.5 -6.5t6.5 -15.5q0 -10 -6.5 -16.5t-15.5 -6.5z" />
    <glyph glyph-name="ntilde" unicode="&#xf1;" horiz-adv-x="426" 
d="M98 500l280 -486v486h8v-500h-57l-281 486v-486h-8v500h58zM135 537q-4 38 18.5 53.5t60.5 -8.5t54 -22.5t25 37.5q1 -27 -5.5 -42.5t-18 -21.5t-27.5 -2t-35 16q-37 24 -52 20.5t-20 -30.5z" />
    <glyph glyph-name="ograve" unicode="&#xf2;" horiz-adv-x="580" 
d="M290 500q52 0 97.5 -19.5t79.5 -53.5t53.5 -79.5t19.5 -97.5t-19.5 -97.5t-53.5 -79.5t-79.5 -53.5t-97.5 -19.5t-97.5 19.5t-79.5 53.5t-53.5 79.5t-19.5 97.5t19.5 97.5t53.5 79.5t79.5 53.5t97.5 19.5zM290 492q-40 0 -75 -19t-61.5 -52t-41.5 -77t-15 -94t15 -94
t41.5 -77t61.5 -52t75 -19t75 19t61.5 52t41.5 77t15 94t-15 94t-41.5 77t-61.5 52t-75 19zM350 559q-33 16 -58 30q-11 6 -20.5 12.5t-16 12.5t-9 12t1.5 11q7 9 24 -2t34 -28q20 -20 44 -48z" />
    <glyph glyph-name="oacute" unicode="&#xf3;" horiz-adv-x="580" 
d="M290 500q52 0 97.5 -19.5t79.5 -53.5t53.5 -79.5t19.5 -97.5t-19.5 -97.5t-53.5 -79.5t-79.5 -53.5t-97.5 -19.5t-97.5 19.5t-79.5 53.5t-53.5 79.5t-19.5 97.5t19.5 97.5t53.5 79.5t79.5 53.5t97.5 19.5zM290 492q-40 0 -75 -19t-61.5 -52t-41.5 -77t-15 -94t15 -94
t41.5 -77t61.5 -52t75 -19t75 19t61.5 52t41.5 77t15 94t-15 94t-41.5 77t-61.5 52t-75 19zM229 539q24 28 44 48q17 17 34 28t24 2q7 -10 -8 -23t-36 -25q-25 -14 -58 -30z" />
    <glyph glyph-name="ocircumflex" unicode="&#xf4;" horiz-adv-x="580" 
d="M290 500q52 0 97.5 -19.5t79.5 -53.5t53.5 -79.5t19.5 -97.5t-19.5 -97.5t-53.5 -79.5t-79.5 -53.5t-97.5 -19.5t-97.5 19.5t-79.5 53.5t-53.5 79.5t-19.5 97.5t19.5 97.5t53.5 79.5t79.5 53.5t97.5 19.5zM290 492q-40 0 -75 -19t-61.5 -52t-41.5 -77t-15 -94t15 -94
t41.5 -77t61.5 -52t75 -19t75 19t61.5 52t41.5 77t15 94t-15 94t-41.5 77t-61.5 52t-75 19zM290 622l69 -89l-69 46l-69 -46z" />
    <glyph glyph-name="otilde" unicode="&#xf5;" horiz-adv-x="580" 
d="M290 500q52 0 97.5 -19.5t79.5 -53.5t53.5 -79.5t19.5 -97.5t-19.5 -97.5t-53.5 -79.5t-79.5 -53.5t-97.5 -19.5t-97.5 19.5t-79.5 53.5t-53.5 79.5t-19.5 97.5t19.5 97.5t53.5 79.5t79.5 53.5t97.5 19.5zM290 492q-40 0 -75 -19t-61.5 -52t-41.5 -77t-15 -94t15 -94
t41.5 -77t61.5 -52t75 -19t75 19t61.5 52t41.5 77t15 94t-15 94t-41.5 77t-61.5 52t-75 19zM212 537q-4 38 18.5 53.5t60.5 -8.5t54 -22.5t25 37.5q1 -27 -5.5 -42.5t-18 -21.5t-27.5 -2t-35 16q-37 24 -52 20.5t-20 -30.5z" />
    <glyph glyph-name="odieresis" unicode="&#xf6;" horiz-adv-x="580" 
d="M290 500q52 0 97.5 -19.5t79.5 -53.5t53.5 -79.5t19.5 -97.5t-19.5 -97.5t-53.5 -79.5t-79.5 -53.5t-97.5 -19.5t-97.5 19.5t-79.5 53.5t-53.5 79.5t-19.5 97.5t19.5 97.5t53.5 79.5t79.5 53.5t97.5 19.5zM290 492q-40 0 -75 -19t-61.5 -52t-41.5 -77t-15 -94t15 -94
t41.5 -77t61.5 -52t75 -19t75 19t61.5 52t41.5 77t15 94t-15 94t-41.5 77t-61.5 52t-75 19zM240 543q-9 0 -15.5 6.5t-6.5 16.5q0 9 6.5 15.5t15.5 6.5t15.5 -6.5t6.5 -15.5q0 -10 -6.5 -16.5t-15.5 -6.5zM339 543q-9 0 -15.5 6.5t-6.5 16.5q0 9 6.5 15.5t15.5 6.5
t15.5 -6.5t6.5 -15.5q0 -10 -6.5 -16.5t-15.5 -6.5z" />
    <glyph glyph-name="ugrave" unicode="&#xf9;" horiz-adv-x="397" 
d="M40 500h50v-354q0 -50 19 -81t48 -44.5t62.5 -11t62.5 19t48 46.5t19 71v354h8v-354q0 -51 -23.5 -84t-58.5 -48t-76.5 -13.5t-76.5 18.5t-58.5 49t-23.5 78v354zM259 559q-33 16 -58 30q-11 6 -20.5 12.5t-16 12.5t-9 12t1.5 11q7 9 24 -2t34 -28q20 -20 44 -48z" />
    <glyph glyph-name="uacute" unicode="&#xfa;" horiz-adv-x="397" 
d="M40 500h50v-354q0 -50 19 -81t48 -44.5t62.5 -11t62.5 19t48 46.5t19 71v354h8v-354q0 -51 -23.5 -84t-58.5 -48t-76.5 -13.5t-76.5 18.5t-58.5 49t-23.5 78v354zM138 539q24 28 44 48q17 17 34 28t24 2q7 -10 -8 -23t-36 -25q-25 -14 -58 -30z" />
    <glyph glyph-name="ucircumflex" unicode="&#xfb;" horiz-adv-x="397" 
d="M40 500h50v-354q0 -50 19 -81t48 -44.5t62.5 -11t62.5 19t48 46.5t19 71v354h8v-354q0 -51 -23.5 -84t-58.5 -48t-76.5 -13.5t-76.5 18.5t-58.5 49t-23.5 78v354zM198 622l69 -89l-69 46l-69 -46z" />
    <glyph glyph-name="udieresis" unicode="&#xfc;" horiz-adv-x="397" 
d="M40 500h50v-354q0 -50 19 -81t48 -44.5t62.5 -11t62.5 19t48 46.5t19 71v354h8v-354q0 -51 -23.5 -84t-58.5 -48t-76.5 -13.5t-76.5 18.5t-58.5 49t-23.5 78v354zM149 543q-9 0 -15.5 6.5t-6.5 16.5q0 9 6.5 15.5t15.5 6.5t15.5 -6.5t6.5 -15.5q0 -10 -6.5 -16.5
t-15.5 -6.5zM248 543q-9 0 -15.5 6.5t-6.5 16.5q0 9 6.5 15.5t15.5 6.5t15.5 -6.5t6.5 -15.5q0 -10 -6.5 -16.5t-15.5 -6.5z" />
    <glyph glyph-name="yacute" unicode="&#xfd;" horiz-adv-x="401" 
d="M235 281v-281h-50v250l-145 250h58l127 -220l127 220h9zM140 539q24 28 44 48q17 17 34 28t24 2q7 -10 -8 -23t-36 -25q-25 -14 -58 -30z" />
    <glyph glyph-name="Ydieresis" unicode="&#x178;" horiz-adv-x="401" 
d="M235 281v-281h-50v250l-145 250h58l127 -220l127 220h9zM151 543q-9 0 -15.5 6.5t-6.5 16.5q0 9 6.5 15.5t15.5 6.5t15.5 -6.5t6.5 -15.5q0 -10 -6.5 -16.5t-15.5 -6.5zM250 543q-9 0 -15.5 6.5t-6.5 16.5q0 9 6.5 15.5t15.5 6.5t15.5 -6.5t6.5 -15.5q0 -10 -6.5 -16.5
t-15.5 -6.5z" />
    <glyph glyph-name="ydieresis" unicode="&#xff;" horiz-adv-x="401" 
d="M235 281v-281h-50v250l-145 250h58l127 -220l127 220h9zM151 543q-9 0 -15.5 6.5t-6.5 16.5q0 9 6.5 15.5t15.5 6.5t15.5 -6.5t6.5 -15.5q0 -10 -6.5 -16.5t-15.5 -6.5zM250 543q-9 0 -15.5 6.5t-6.5 16.5q0 9 6.5 15.5t15.5 6.5t15.5 -6.5t6.5 -15.5q0 -10 -6.5 -16.5
t-15.5 -6.5z" />
    <glyph glyph-name="zcaron" unicode="&#x17e;" horiz-adv-x="427" 
d="M102 8h239v-8h-301l284 492h-233v8h295h1l-1 -1zM213 543l-69 89l69 -46l69 46z" />
    <glyph glyph-name="Scaron" unicode="&#x160;" horiz-adv-x="357" 
d="M89 71q20 -28 46 -47.5t63 -19.5q35 0 60 26q24 27 24 63q0 28 -15 49q-8 10 -17 18.5t-18 16.5q-14 12 -29.5 22.5t-31.5 21.5q-12 8 -24.5 16t-24.5 17h1l-4 2t-4 3q-8 6 -15.5 12t-14.5 13q-21 19 -34 46q-11 27 -11 55q0 51 33 89q18 20 39.5 29t45.5 9
q42 0 69.5 -20t49.5 -53l-9 -7q-20 29 -46 48.5t-63 19.5q-36 0 -60 -27t-24 -62q0 -26 15 -49q8 -11 17 -19.5t18 -15.5q29 -23 61 -44q12 -8 24.5 -16t24.5 -17q3 -3 7 -5q8 -6 15.5 -12.5t14.5 -13.5q22 -19 34 -46q11 -27 11 -54t-8.5 -49t-24.5 -40q-18 -20 -39.5 -29
t-45.5 -9q-42 0 -69.5 20t-49.5 52zM178 543l-69 89l69 -46l69 46z" />
    <glyph glyph-name="scaron" unicode="&#x161;" horiz-adv-x="357" 
d="M89 71q20 -28 46 -47.5t63 -19.5q35 0 60 26q24 27 24 63q0 28 -15 49q-8 10 -17 18.5t-18 16.5q-14 12 -29.5 22.5t-31.5 21.5q-12 8 -24.5 16t-24.5 17h1l-4 2t-4 3q-8 6 -15.5 12t-14.5 13q-21 19 -34 46q-11 27 -11 55q0 51 33 89q18 20 39.5 29t45.5 9
q42 0 69.5 -20t49.5 -53l-9 -7q-20 29 -46 48.5t-63 19.5q-36 0 -60 -27t-24 -62q0 -26 15 -49q8 -11 17 -19.5t18 -15.5q29 -23 61 -44q12 -8 24.5 -16t24.5 -17q3 -3 7 -5q8 -6 15.5 -12.5t14.5 -13.5q22 -19 34 -46q11 -27 11 -54t-8.5 -49t-24.5 -40q-18 -20 -39.5 -29
t-45.5 -9q-42 0 -69.5 20t-49.5 52zM178 543l-69 89l69 -46l69 46z" />
    <glyph glyph-name="A" unicode="A" 
d="M188 484l-130 -484h-8l134 500h52l134 -500h-52z" />
    <glyph glyph-name="B" unicode="B" horiz-adv-x="392" 
d="M40 0v500h120q49 0 83 -15.5t53.5 -40t24 -53.5t-5.5 -56.5t-35 -49.5t-64 -32q47 -5 78 -25.5t45.5 -49t12 -59.5t-21 -57.5t-53.5 -44t-87 -17.5h-150zM90 246v-238h94q38 0 63 17.5t37.5 44t12.5 57.5t-12.5 57.5t-37.5 44t-63 17.5h-94zM154 254q38 0 63 17.5
t37.5 44t12.5 57.5t-12.5 57.5t-37.5 44t-63 17.5h-64v-238h64z" />
    <glyph glyph-name="C" unicode="C" horiz-adv-x="426" 
d="M386 420l-6 -5q-24 34 -49 51t-66 22q-49 0 -90 -29q-40 -29 -58 -83q-11 -30 -15.5 -62t-4.5 -64t4.5 -64t15.5 -62q18 -54 58 -83q41 -29 90 -29q41 5 66 22t49 51l6 -6q-11 -15 -22.5 -28t-25.5 -23q-22 -17 -46.5 -24t-50.5 -7q-49 0 -89 22t-69 70
q-23 35 -32.5 75.5t-10.5 85.5q1 45 10.5 85t32.5 76q29 48 69 70t89 22q26 0 50.5 -7t46.5 -24q14 -10 25.5 -23t22.5 -29z" />
    </font>
</defs>
</svg>
